<svg width="207" height="373" viewBox="0 0 207 373" fill="none" xmlns="http://www.w3.org/2000/svg">
<g filter="url(#filter0_d)">
<path d="M114 148C157.078 148 192 114.869 192 74C192 33.1309 157.078 0 114 0C70.9218 0 36 33.1309 36 74C36 114.869 70.9218 148 114 148Z" fill="#A86B89"/>
</g>
<g filter="url(#filter1_d)">
<path d="M36.1821 90.1368C36.206 82.6335 38.2399 75.2101 42.1677 68.2904C46.0955 61.3707 51.8402 55.0902 59.0738 49.8075C66.3075 44.5249 74.8884 40.3435 84.3267 37.5022C93.765 34.6609 103.876 33.2152 114.082 33.2477C124.288 33.2802 134.389 34.7903 143.809 37.6918C153.229 40.5932 161.783 44.8292 168.983 50.1578C176.183 55.4865 181.887 61.8034 185.771 68.7481C189.655 75.6927 191.641 83.1289 191.617 90.6322L113.9 90.3845L36.1821 90.1368Z" fill="#057196"/>
</g>
<g filter="url(#filter2_d)">
<rect x="36" y="90" width="156" height="98" fill="#057196"/>
</g>
<g filter="url(#filter3_d)">
<rect x="36" y="188" width="156" height="41" fill="#A86B89"/>
</g>
<g filter="url(#filter4_d)">
<rect x="36" y="229" width="156" height="39" fill="#EB6825"/>
</g>
<g filter="url(#filter5_d)">
<ellipse cx="84" cy="44.5" rx="17" ry="19.5" fill="white"/>
</g>
<g filter="url(#filter6_d)">
<ellipse cx="146" cy="44.5" rx="17" ry="19.5" fill="white"/>
</g>
<g filter="url(#filter7_d)">
<path d="M165 105.5C165 110.95 163.694 116.346 161.156 121.381C158.618 126.416 154.898 130.991 150.209 134.845C145.52 138.699 139.952 141.755 133.826 143.841C127.699 145.927 121.132 147 114.5 147C107.868 147 101.301 145.927 95.1745 143.841C89.0475 141.755 83.4805 138.699 78.7911 134.845C74.1017 130.991 70.3819 126.416 67.8441 121.381C65.3062 116.346 64 110.95 64 105.5L114.5 105.5H165Z" fill="#D56261"/>
</g>
<g filter="url(#filter8_d)">
<ellipse cx="84" cy="48" rx="9" ry="11" fill="#F29024"/>
</g>
<g filter="url(#filter9_d)">
<ellipse cx="146" cy="48" rx="9" ry="11" fill="#F29024"/>
</g>
<path d="M60.7826 303.465C60.8637 303.58 60.9293 303.672 60.9772 303.738C62.1801 304.7 68.711 302.779 68.711 296.648C68.711 293.137 70.2608 292.499 73.1508 290.848C79.1162 287.439 83.2537 289.559 89.3346 289.559C94.3776 289.559 104.802 290.854 104.802 296.004C104.802 301.28 108.672 309.227 109.887 314.694C111.531 322.094 111.247 329.63 111.247 337.251C111.247 345.658 114.595 348.852 103.513 348.852H50.9518C41.6673 348.852 32.2812 347.895 23.3105 347.563C19.1214 347.408 14.892 347.809 10.7072 347.563C8.16631 347.413 7.18787 337.787 4.90683 335.962C0.790565 332.669 0.895054 321.287 2.32888 316.699C4.62974 309.336 10.3913 305.74 17.1521 302.735C23.5974 299.871 32.4588 299.871 39.5192 299.871L39.6375 299.871C46.5305 299.871 54.8253 303.738 60.9772 303.738C60.8934 303.671 60.8292 303.579 60.7826 303.465C58.9444 300.855 49.1411 286.161 57.1102 285.692C60.3894 285.499 61.6211 285.763 63.8416 287.984C65.905 290.047 59.8537 301.194 60.7826 303.465Z" fill="#FFDB5A"/>
<path d="M60.9772 303.738C59.8442 302.18 48.7894 286.181 57.1102 285.692C60.3894 285.499 61.6211 285.763 63.8416 287.984C66.0086 290.151 59.2257 302.336 60.9772 303.738ZM60.9772 303.738C62.1801 304.7 68.711 302.779 68.711 296.648C68.711 293.137 70.2608 292.499 73.1508 290.848C79.1162 287.439 83.2537 289.559 89.3346 289.559C94.3776 289.559 104.802 290.854 104.802 296.004C104.802 301.28 108.672 309.227 109.887 314.694C111.531 322.094 111.247 329.63 111.247 337.251C111.247 345.658 114.595 348.852 103.513 348.852C85.9928 348.852 68.4723 348.852 50.9518 348.852C41.6673 348.852 32.2812 347.895 23.3105 347.563C19.1214 347.408 14.892 347.809 10.7072 347.563C8.16631 347.413 7.18787 337.787 4.90683 335.962C0.790565 332.669 0.895054 321.287 2.32888 316.699C4.62974 309.336 10.3913 305.74 17.1521 302.735C23.6334 299.855 32.5579 299.871 39.6375 299.871C46.5305 299.871 54.8253 303.738 60.9772 303.738Z" stroke="white" stroke-linecap="round" stroke-linejoin="round"/>
<path d="M21.019 306.316C22.9044 311.147 26.1749 326.182 26.1749 320.996C26.1749 316.57 28.5224 311.522 28.7528 307.605C29.1757 300.415 33.1853 310.551 33.9803 313.333C34.3252 314.54 36.4855 317.325 37.4892 318.203C37.6339 318.329 37.7756 312.583 37.7756 311.471C37.7756 303.796 39.3328 305.328 44.2205 310.827C46.2684 313.131 54.2491 325.56 54.5323 317.63C54.6437 314.511 54.5323 311.37 54.5323 308.249C54.5323 304.909 58.1174 309.457 59.1153 310.183C62.7057 312.794 65.8842 315.789 69.3555 318.489C73.0801 321.386 71.8716 318.865 71.3606 316.054C70.9018 313.531 69.5354 311.239 68.4246 308.894C68.0224 308.045 65.0294 304.154 65.1305 304.024C68.6258 299.53 75.0579 298.896 80.2401 300.515C84.4514 301.831 85.6315 308.598 80.3118 308.894C75.9225 309.137 73.1589 307.089 69.3555 306.244C64.6444 305.197 67.1097 297.724 61.6933 296.29C54.8815 294.487 46.7724 294.715 39.7091 294.715C37.3226 294.715 37.1954 296.833 39.351 297.579C43.2396 298.925 47.5527 299.871 51.6679 299.871C54.8764 299.871 59.3253 301.911 62.2661 300.873C63.4405 300.459 64.8502 303.096 66.133 303.738" stroke="#057196" stroke-width="3" stroke-linecap="round" stroke-linejoin="round"/>
<path d="M8.12927 342.407C39.4254 342.407 70.6738 341.118 102.224 341.118" stroke="black" stroke-width="2" stroke-linecap="round" stroke-linejoin="round"/>
<path d="M99.6464 341.118C102.224 341.118 104.802 341.118 107.38 341.118" stroke="black" stroke-linecap="round" stroke-linejoin="round"/>
<path d="M6.84033 338.54C40.5845 338.54 74.1859 335.962 107.38 335.962" stroke="black" stroke-linecap="round" stroke-linejoin="round"/>
<g filter="url(#filter10_d)">
<path d="M139.889 304.941C140.004 305.022 140.097 305.086 140.164 305.132C141.621 305.633 147.123 301.624 145.058 295.852C143.876 292.545 145.12 291.423 147.285 288.895C151.754 283.676 156.364 284.278 162.089 282.23C166.837 280.531 177.089 278.24 178.824 283.088C180.601 288.056 186.921 294.236 189.906 298.974C193.947 305.387 196.218 312.579 198.785 319.755C201.617 327.671 205.845 329.55 195.41 333.283L145.92 350.986C137.178 354.114 128.018 356.374 119.46 359.083C115.463 360.348 111.616 362.15 107.593 363.328C105.15 364.043 100.987 355.309 98.2242 354.359C93.2393 352.645 89.504 341.893 89.3086 337.09C88.9951 329.382 93.2087 324.055 98.5623 318.949C103.666 314.081 112.01 311.096 118.658 308.718L118.769 308.678C125.259 306.357 134.372 307.204 140.164 305.132C140.063 305.097 139.972 305.032 139.889 304.941C137.28 303.102 123.1 292.569 130.445 289.443C133.468 288.157 134.716 287.991 137.555 289.333C140.193 290.581 138.25 303.115 139.889 304.941Z" fill="#FFDB5A"/>
<path d="M140.164 305.132C138.573 304.047 122.775 292.706 130.445 289.443C133.468 288.157 134.716 287.991 137.555 289.333C140.325 290.644 138.043 304.402 140.164 305.132ZM140.164 305.132C141.621 305.633 147.123 301.624 145.058 295.852C143.876 292.545 145.12 291.423 147.285 288.895C151.754 283.676 156.364 284.278 162.089 282.23C166.837 280.531 177.089 278.24 178.824 283.088C180.601 288.056 186.921 294.236 189.906 298.974C193.947 305.387 196.218 312.579 198.785 319.755C201.617 327.671 205.845 329.55 195.41 333.283C178.914 339.184 162.417 345.085 145.92 350.986C137.178 354.114 128.018 356.374 119.46 359.083C115.463 360.348 111.616 362.15 107.593 363.328C105.15 364.043 100.987 355.309 98.2242 354.359C93.2393 352.645 89.504 341.893 89.3086 337.09C88.9951 329.382 93.2087 324.055 98.5623 318.949C103.695 314.054 112.103 311.063 118.769 308.678C125.259 306.357 134.372 307.204 140.164 305.132Z" stroke="white" stroke-linecap="round" stroke-linejoin="round"/>
</g>
<g filter="url(#filter11_d)">
<path d="M104.986 325.29C108.389 329.204 116.532 342.259 114.785 337.376C113.295 333.209 113.805 327.664 112.702 323.899C110.679 316.987 117.868 325.18 119.554 327.532C120.285 328.552 123.257 330.446 124.498 330.935C124.677 331.005 122.875 325.547 122.5 324.501C119.915 317.274 121.897 318.192 128.352 321.723C131.056 323.202 142.757 332.218 140.352 324.655C139.407 321.681 138.244 318.761 137.192 315.822C136.068 312.678 140.975 315.752 142.159 316.099C146.419 317.349 150.421 319.098 154.599 320.471C159.081 321.945 157.094 319.978 155.666 317.504C154.385 315.282 152.326 313.584 150.49 311.75C149.825 311.086 145.697 308.431 145.748 308.275C147.526 302.866 153.368 300.102 158.793 299.881C163.202 299.702 166.592 305.676 161.683 307.746C157.632 309.454 154.34 308.456 150.474 308.942C145.686 309.543 145.49 301.676 139.907 302.15C132.886 302.747 125.327 305.693 118.677 308.072C116.43 308.876 117.023 310.913 119.304 310.889C123.419 310.847 127.799 310.284 131.673 308.898C134.694 307.818 139.571 308.24 141.99 306.273C142.956 305.487 145.172 307.495 146.596 307.667" stroke="#057196" stroke-width="3" stroke-linecap="round" stroke-linejoin="round"/>
</g>
<g filter="url(#filter12_d)">
<path d="M105.006 363.614C134.473 353.073 163.462 341.334 193.169 330.707" stroke="black" stroke-width="2" stroke-linecap="round" stroke-linejoin="round"/>
</g>
<g filter="url(#filter13_d)">
<path d="M190.741 331.575C193.169 330.707 195.596 329.839 198.023 328.97" stroke="black" stroke-linecap="round" stroke-linejoin="round"/>
</g>
<g filter="url(#filter14_d)">
<path d="M102.49 360.407C134.262 349.041 165.032 335.296 196.287 324.116" stroke="black" stroke-linecap="round" stroke-linejoin="round"/>
</g>
<defs>
<filter id="filter0_d" x="32" y="0" width="164" height="156" filterUnits="userSpaceOnUse" color-interpolation-filters="sRGB">
<feFlood flood-opacity="0" result="BackgroundImageFix"/>
<feColorMatrix in="SourceAlpha" type="matrix" values="0 0 0 0 0 0 0 0 0 0 0 0 0 0 0 0 0 0 127 0"/>
<feOffset dy="4"/>
<feGaussianBlur stdDeviation="2"/>
<feColorMatrix type="matrix" values="0 0 0 0 0 0 0 0 0 0 0 0 0 0 0 0 0 0 0.25 0"/>
<feBlend mode="normal" in2="BackgroundImageFix" result="effect1_dropShadow"/>
<feBlend mode="normal" in="SourceGraphic" in2="effect1_dropShadow" result="shape"/>
</filter>
<filter id="filter1_d" x="32.1821" y="33" width="163.617" height="65.6322" filterUnits="userSpaceOnUse" color-interpolation-filters="sRGB">
<feFlood flood-opacity="0" result="BackgroundImageFix"/>
<feColorMatrix in="SourceAlpha" type="matrix" values="0 0 0 0 0 0 0 0 0 0 0 0 0 0 0 0 0 0 127 0"/>
<feOffset dy="4"/>
<feGaussianBlur stdDeviation="2"/>
<feColorMatrix type="matrix" values="0 0 0 0 0 0 0 0 0 0 0 0 0 0 0 0 0 0 0.25 0"/>
<feBlend mode="normal" in2="BackgroundImageFix" result="effect1_dropShadow"/>
<feBlend mode="normal" in="SourceGraphic" in2="effect1_dropShadow" result="shape"/>
</filter>
<filter id="filter2_d" x="32" y="90" width="164" height="106" filterUnits="userSpaceOnUse" color-interpolation-filters="sRGB">
<feFlood flood-opacity="0" result="BackgroundImageFix"/>
<feColorMatrix in="SourceAlpha" type="matrix" values="0 0 0 0 0 0 0 0 0 0 0 0 0 0 0 0 0 0 127 0"/>
<feOffset dy="4"/>
<feGaussianBlur stdDeviation="2"/>
<feColorMatrix type="matrix" values="0 0 0 0 0 0 0 0 0 0 0 0 0 0 0 0 0 0 0.25 0"/>
<feBlend mode="normal" in2="BackgroundImageFix" result="effect1_dropShadow"/>
<feBlend mode="normal" in="SourceGraphic" in2="effect1_dropShadow" result="shape"/>
</filter>
<filter id="filter3_d" x="32" y="188" width="164" height="49" filterUnits="userSpaceOnUse" color-interpolation-filters="sRGB">
<feFlood flood-opacity="0" result="BackgroundImageFix"/>
<feColorMatrix in="SourceAlpha" type="matrix" values="0 0 0 0 0 0 0 0 0 0 0 0 0 0 0 0 0 0 127 0"/>
<feOffset dy="4"/>
<feGaussianBlur stdDeviation="2"/>
<feColorMatrix type="matrix" values="0 0 0 0 0 0 0 0 0 0 0 0 0 0 0 0 0 0 0.25 0"/>
<feBlend mode="normal" in2="BackgroundImageFix" result="effect1_dropShadow"/>
<feBlend mode="normal" in="SourceGraphic" in2="effect1_dropShadow" result="shape"/>
</filter>
<filter id="filter4_d" x="32" y="229" width="164" height="47" filterUnits="userSpaceOnUse" color-interpolation-filters="sRGB">
<feFlood flood-opacity="0" result="BackgroundImageFix"/>
<feColorMatrix in="SourceAlpha" type="matrix" values="0 0 0 0 0 0 0 0 0 0 0 0 0 0 0 0 0 0 127 0"/>
<feOffset dy="4"/>
<feGaussianBlur stdDeviation="2"/>
<feColorMatrix type="matrix" values="0 0 0 0 0 0 0 0 0 0 0 0 0 0 0 0 0 0 0.25 0"/>
<feBlend mode="normal" in2="BackgroundImageFix" result="effect1_dropShadow"/>
<feBlend mode="normal" in="SourceGraphic" in2="effect1_dropShadow" result="shape"/>
</filter>
<filter id="filter5_d" x="63" y="25" width="42" height="47" filterUnits="userSpaceOnUse" color-interpolation-filters="sRGB">
<feFlood flood-opacity="0" result="BackgroundImageFix"/>
<feColorMatrix in="SourceAlpha" type="matrix" values="0 0 0 0 0 0 0 0 0 0 0 0 0 0 0 0 0 0 127 0"/>
<feOffset dy="4"/>
<feGaussianBlur stdDeviation="2"/>
<feColorMatrix type="matrix" values="0 0 0 0 0 0 0 0 0 0 0 0 0 0 0 0 0 0 0.25 0"/>
<feBlend mode="normal" in2="BackgroundImageFix" result="effect1_dropShadow"/>
<feBlend mode="normal" in="SourceGraphic" in2="effect1_dropShadow" result="shape"/>
</filter>
<filter id="filter6_d" x="125" y="25" width="42" height="47" filterUnits="userSpaceOnUse" color-interpolation-filters="sRGB">
<feFlood flood-opacity="0" result="BackgroundImageFix"/>
<feColorMatrix in="SourceAlpha" type="matrix" values="0 0 0 0 0 0 0 0 0 0 0 0 0 0 0 0 0 0 127 0"/>
<feOffset dy="4"/>
<feGaussianBlur stdDeviation="2"/>
<feColorMatrix type="matrix" values="0 0 0 0 0 0 0 0 0 0 0 0 0 0 0 0 0 0 0.25 0"/>
<feBlend mode="normal" in2="BackgroundImageFix" result="effect1_dropShadow"/>
<feBlend mode="normal" in="SourceGraphic" in2="effect1_dropShadow" result="shape"/>
</filter>
<filter id="filter7_d" x="60" y="105.5" width="109" height="49.5" filterUnits="userSpaceOnUse" color-interpolation-filters="sRGB">
<feFlood flood-opacity="0" result="BackgroundImageFix"/>
<feColorMatrix in="SourceAlpha" type="matrix" values="0 0 0 0 0 0 0 0 0 0 0 0 0 0 0 0 0 0 127 0"/>
<feOffset dy="4"/>
<feGaussianBlur stdDeviation="2"/>
<feColorMatrix type="matrix" values="0 0 0 0 0 0 0 0 0 0 0 0 0 0 0 0 0 0 0.25 0"/>
<feBlend mode="normal" in2="BackgroundImageFix" result="effect1_dropShadow"/>
<feBlend mode="normal" in="SourceGraphic" in2="effect1_dropShadow" result="shape"/>
</filter>
<filter id="filter8_d" x="71" y="37" width="26" height="30" filterUnits="userSpaceOnUse" color-interpolation-filters="sRGB">
<feFlood flood-opacity="0" result="BackgroundImageFix"/>
<feColorMatrix in="SourceAlpha" type="matrix" values="0 0 0 0 0 0 0 0 0 0 0 0 0 0 0 0 0 0 127 0"/>
<feOffset dy="4"/>
<feGaussianBlur stdDeviation="2"/>
<feColorMatrix type="matrix" values="0 0 0 0 0 0 0 0 0 0 0 0 0 0 0 0 0 0 0.25 0"/>
<feBlend mode="normal" in2="BackgroundImageFix" result="effect1_dropShadow"/>
<feBlend mode="normal" in="SourceGraphic" in2="effect1_dropShadow" result="shape"/>
</filter>
<filter id="filter9_d" x="133" y="37" width="26" height="30" filterUnits="userSpaceOnUse" color-interpolation-filters="sRGB">
<feFlood flood-opacity="0" result="BackgroundImageFix"/>
<feColorMatrix in="SourceAlpha" type="matrix" values="0 0 0 0 0 0 0 0 0 0 0 0 0 0 0 0 0 0 127 0"/>
<feOffset dy="4"/>
<feGaussianBlur stdDeviation="2"/>
<feColorMatrix type="matrix" values="0 0 0 0 0 0 0 0 0 0 0 0 0 0 0 0 0 0 0.25 0"/>
<feBlend mode="normal" in2="BackgroundImageFix" result="effect1_dropShadow"/>
<feBlend mode="normal" in="SourceGraphic" in2="effect1_dropShadow" result="shape"/>
</filter>
<filter id="filter10_d" x="84.7922" y="279.676" width="121.785" height="92.194" filterUnits="userSpaceOnUse" color-interpolation-filters="sRGB">
<feFlood flood-opacity="0" result="BackgroundImageFix"/>
<feColorMatrix in="SourceAlpha" type="matrix" values="0 0 0 0 0 0 0 0 0 0 0 0 0 0 0 0 0 0 127 0"/>
<feOffset dy="4"/>
<feGaussianBlur stdDeviation="2"/>
<feColorMatrix type="matrix" values="0 0 0 0 0 0 0 0 0 0 0 0 0 0 0 0 0 0 0.25 0"/>
<feBlend mode="normal" in2="BackgroundImageFix" result="effect1_dropShadow"/>
<feBlend mode="normal" in="SourceGraphic" in2="effect1_dropShadow" result="shape"/>
</filter>
<filter id="filter11_d" x="99.4861" y="298.377" width="70.1137" height="49.5768" filterUnits="userSpaceOnUse" color-interpolation-filters="sRGB">
<feFlood flood-opacity="0" result="BackgroundImageFix"/>
<feColorMatrix in="SourceAlpha" type="matrix" values="0 0 0 0 0 0 0 0 0 0 0 0 0 0 0 0 0 0 127 0"/>
<feOffset dy="4"/>
<feGaussianBlur stdDeviation="2"/>
<feColorMatrix type="matrix" values="0 0 0 0 0 0 0 0 0 0 0 0 0 0 0 0 0 0 0.25 0"/>
<feBlend mode="normal" in2="BackgroundImageFix" result="effect1_dropShadow"/>
<feBlend mode="normal" in="SourceGraphic" in2="effect1_dropShadow" result="shape"/>
</filter>
<filter id="filter12_d" x="100.006" y="329.707" width="98.1633" height="42.9076" filterUnits="userSpaceOnUse" color-interpolation-filters="sRGB">
<feFlood flood-opacity="0" result="BackgroundImageFix"/>
<feColorMatrix in="SourceAlpha" type="matrix" values="0 0 0 0 0 0 0 0 0 0 0 0 0 0 0 0 0 0 127 0"/>
<feOffset dy="4"/>
<feGaussianBlur stdDeviation="2"/>
<feColorMatrix type="matrix" values="0 0 0 0 0 0 0 0 0 0 0 0 0 0 0 0 0 0 0.25 0"/>
<feBlend mode="normal" in2="BackgroundImageFix" result="effect1_dropShadow"/>
<feBlend mode="normal" in="SourceGraphic" in2="effect1_dropShadow" result="shape"/>
</filter>
<filter id="filter13_d" x="186.241" y="328.47" width="16.2822" height="11.6052" filterUnits="userSpaceOnUse" color-interpolation-filters="sRGB">
<feFlood flood-opacity="0" result="BackgroundImageFix"/>
<feColorMatrix in="SourceAlpha" type="matrix" values="0 0 0 0 0 0 0 0 0 0 0 0 0 0 0 0 0 0 127 0"/>
<feOffset dy="4"/>
<feGaussianBlur stdDeviation="2"/>
<feColorMatrix type="matrix" values="0 0 0 0 0 0 0 0 0 0 0 0 0 0 0 0 0 0 0.25 0"/>
<feBlend mode="normal" in2="BackgroundImageFix" result="effect1_dropShadow"/>
<feBlend mode="normal" in="SourceGraphic" in2="effect1_dropShadow" result="shape"/>
</filter>
<filter id="filter14_d" x="97.9897" y="323.615" width="102.797" height="45.2918" filterUnits="userSpaceOnUse" color-interpolation-filters="sRGB">
<feFlood flood-opacity="0" result="BackgroundImageFix"/>
<feColorMatrix in="SourceAlpha" type="matrix" values="0 0 0 0 0 0 0 0 0 0 0 0 0 0 0 0 0 0 127 0"/>
<feOffset dy="4"/>
<feGaussianBlur stdDeviation="2"/>
<feColorMatrix type="matrix" values="0 0 0 0 0 0 0 0 0 0 0 0 0 0 0 0 0 0 0.25 0"/>
<feBlend mode="normal" in2="BackgroundImageFix" result="effect1_dropShadow"/>
<feBlend mode="normal" in="SourceGraphic" in2="effect1_dropShadow" result="shape"/>
</filter>
</defs>
</svg>
