<svg width="216" height="345" viewBox="0 0 216 345" fill="none" xmlns="http://www.w3.org/2000/svg">
<path d="M168.598 57.5592C161.106 74.9656 134.207 80.1125 108.516 69.0551C82.8261 57.9977 68.0733 34.9233 75.5652 17.517C83.057 0.110637 109.957 -5.03624 135.647 6.02112C161.337 17.0785 176.09 40.1529 168.598 57.5592Z" fill="#F29024"/>
<ellipse cx="108.092" cy="90.7426" rx="113.469" ry="50.5" transform="rotate(21.612 108.092 90.7426)" fill="#FFDB5A"/>
<g filter="url(#filter0_d)">
<path d="M93 217C136.078 217 171 183.869 171 143C171 102.131 136.078 69 93 69C49.9218 69 15 102.131 15 143C15 183.869 49.9218 217 93 217Z" fill="#D56261"/>
</g>
<g filter="url(#filter1_d)">
<path d="M15.1821 159.137C15.206 151.634 17.2399 144.21 21.1677 137.29C25.0955 130.371 30.8402 124.09 38.0738 118.808C45.3075 113.525 53.8884 109.344 63.3267 106.502C72.765 103.661 82.8758 102.215 93.0818 102.248C103.288 102.28 113.389 103.79 122.809 106.692C132.229 109.593 140.783 113.829 147.983 119.158C155.183 124.486 160.887 130.803 164.771 137.748C168.655 144.693 170.641 152.129 170.617 159.632L92.8997 159.385L15.1821 159.137Z" fill="#A86B89"/>
</g>
<g filter="url(#filter2_d)">
<rect x="15" y="159" width="156" height="98" fill="#A86B89"/>
</g>
<g filter="url(#filter3_d)">
<rect x="15" y="257" width="156" height="41" fill="#D56261"/>
</g>
<g filter="url(#filter4_d)">
<rect x="15" y="298" width="156" height="39" fill="#3C9F88"/>
</g>
<g filter="url(#filter5_d)">
<ellipse cx="63" cy="113.5" rx="17" ry="19.5" fill="white"/>
</g>
<g filter="url(#filter6_d)">
<ellipse cx="125" cy="113.5" rx="17" ry="19.5" fill="white"/>
</g>
<g filter="url(#filter7_d)">
<path d="M144 174.5C144 179.95 142.694 185.346 140.156 190.381C137.618 195.416 133.898 199.991 129.209 203.845C124.52 207.699 118.952 210.755 112.826 212.841C106.699 214.927 100.132 216 93.5 216C86.8682 216 80.3014 214.927 74.1745 212.841C68.0475 210.755 62.4805 207.699 57.7911 203.845C53.1017 199.991 49.3819 195.416 46.8441 190.381C44.3062 185.346 43 179.95 43 174.5L93.5 174.5H144Z" fill="#D56261"/>
</g>
<g filter="url(#filter8_d)">
<ellipse cx="63" cy="117" rx="9" ry="11" fill="#3C9F88"/>
</g>
<g filter="url(#filter9_d)">
<ellipse cx="125" cy="117" rx="9" ry="11" fill="#3C9F88"/>
</g>
<path d="M148.335 28.3764C149.035 27.413 157.955 13.7188 160.938 19.3536C162.446 22.2027 160.184 30.4605 157.357 31.9569C155.672 32.849 145.041 31.8112 145.041 29.9518C145.041 29.392 151.019 29.6522 151.485 29.737C154.375 30.2623 155.04 33.9242 156.068 36.1103C157.825 39.8427 157.705 45.4388 152.201 45.1331C147.602 44.8776 146.205 38.1813 145.757 34.8213C145.194 30.6052 140.981 44.08 136.734 43.8441C133.723 43.6769 128.752 37.0739 131.005 34.1768C133.491 30.9803 137.875 29.6611 141.102 32.8878C144.343 36.1287 131.596 30.9728 128.355 27.7319C121.912 21.2883 137.632 13.4081 140.529 26.443C143.994 42.0338 137.253 18.7448 143.895 16.8473C151.171 14.7684 148.816 30.0694 144.468 32.2434" stroke="#D56261" stroke-linecap="round" stroke-linejoin="round"/>
<path d="M126.621 32.7891C125.054 28.9168 116.106 6.46696 125.332 7.00968C127.896 7.1605 128.038 16.3116 127.91 18.6104C127.814 20.3395 120.068 29.8586 123.041 25.7714C124.806 23.3446 133.412 8.78801 137.506 12.8817C143.804 19.1795 131.423 34.5828 125.404 29.5667C119.761 24.8644 127.895 27.8995 130.488 29.5667C133.968 31.804 138.739 35.8145 136.647 40.523C134.844 44.5777 130.795 41.8174 128.483 39.234C125.84 36.2804 128.236 27.0676 125.332 31.7866C121.978 37.2369 121.966 40.6989 114.304 38.9476C108.97 37.7283 106.575 34.5706 111.941 30.8557C115.632 28.3008 124.438 30.2112 120.749 30.2112C116.802 30.2112 106.909 26.3776 106.069 21.7613C105.311 17.5904 110.953 14.8867 114.376 14.8867C118.117 14.8867 121.465 24.5517 121.465 27.6333" stroke="#D56261" stroke-linecap="round" stroke-linejoin="round"/>
<defs>
<filter id="filter0_d" x="11" y="69" width="164" height="156" filterUnits="userSpaceOnUse" color-interpolation-filters="sRGB">
<feFlood flood-opacity="0" result="BackgroundImageFix"/>
<feColorMatrix in="SourceAlpha" type="matrix" values="0 0 0 0 0 0 0 0 0 0 0 0 0 0 0 0 0 0 127 0"/>
<feOffset dy="4"/>
<feGaussianBlur stdDeviation="2"/>
<feColorMatrix type="matrix" values="0 0 0 0 0 0 0 0 0 0 0 0 0 0 0 0 0 0 0.25 0"/>
<feBlend mode="normal" in2="BackgroundImageFix" result="effect1_dropShadow"/>
<feBlend mode="normal" in="SourceGraphic" in2="effect1_dropShadow" result="shape"/>
</filter>
<filter id="filter1_d" x="11.1821" y="102.247" width="163.435" height="65.3851" filterUnits="userSpaceOnUse" color-interpolation-filters="sRGB">
<feFlood flood-opacity="0" result="BackgroundImageFix"/>
<feColorMatrix in="SourceAlpha" type="matrix" values="0 0 0 0 0 0 0 0 0 0 0 0 0 0 0 0 0 0 127 0"/>
<feOffset dy="4"/>
<feGaussianBlur stdDeviation="2"/>
<feColorMatrix type="matrix" values="0 0 0 0 0 0 0 0 0 0 0 0 0 0 0 0 0 0 0.25 0"/>
<feBlend mode="normal" in2="BackgroundImageFix" result="effect1_dropShadow"/>
<feBlend mode="normal" in="SourceGraphic" in2="effect1_dropShadow" result="shape"/>
</filter>
<filter id="filter2_d" x="11" y="159" width="164" height="106" filterUnits="userSpaceOnUse" color-interpolation-filters="sRGB">
<feFlood flood-opacity="0" result="BackgroundImageFix"/>
<feColorMatrix in="SourceAlpha" type="matrix" values="0 0 0 0 0 0 0 0 0 0 0 0 0 0 0 0 0 0 127 0"/>
<feOffset dy="4"/>
<feGaussianBlur stdDeviation="2"/>
<feColorMatrix type="matrix" values="0 0 0 0 0 0 0 0 0 0 0 0 0 0 0 0 0 0 0.25 0"/>
<feBlend mode="normal" in2="BackgroundImageFix" result="effect1_dropShadow"/>
<feBlend mode="normal" in="SourceGraphic" in2="effect1_dropShadow" result="shape"/>
</filter>
<filter id="filter3_d" x="11" y="257" width="164" height="49" filterUnits="userSpaceOnUse" color-interpolation-filters="sRGB">
<feFlood flood-opacity="0" result="BackgroundImageFix"/>
<feColorMatrix in="SourceAlpha" type="matrix" values="0 0 0 0 0 0 0 0 0 0 0 0 0 0 0 0 0 0 127 0"/>
<feOffset dy="4"/>
<feGaussianBlur stdDeviation="2"/>
<feColorMatrix type="matrix" values="0 0 0 0 0 0 0 0 0 0 0 0 0 0 0 0 0 0 0.25 0"/>
<feBlend mode="normal" in2="BackgroundImageFix" result="effect1_dropShadow"/>
<feBlend mode="normal" in="SourceGraphic" in2="effect1_dropShadow" result="shape"/>
</filter>
<filter id="filter4_d" x="11" y="298" width="164" height="47" filterUnits="userSpaceOnUse" color-interpolation-filters="sRGB">
<feFlood flood-opacity="0" result="BackgroundImageFix"/>
<feColorMatrix in="SourceAlpha" type="matrix" values="0 0 0 0 0 0 0 0 0 0 0 0 0 0 0 0 0 0 127 0"/>
<feOffset dy="4"/>
<feGaussianBlur stdDeviation="2"/>
<feColorMatrix type="matrix" values="0 0 0 0 0 0 0 0 0 0 0 0 0 0 0 0 0 0 0.25 0"/>
<feBlend mode="normal" in2="BackgroundImageFix" result="effect1_dropShadow"/>
<feBlend mode="normal" in="SourceGraphic" in2="effect1_dropShadow" result="shape"/>
</filter>
<filter id="filter5_d" x="42" y="94" width="42" height="47" filterUnits="userSpaceOnUse" color-interpolation-filters="sRGB">
<feFlood flood-opacity="0" result="BackgroundImageFix"/>
<feColorMatrix in="SourceAlpha" type="matrix" values="0 0 0 0 0 0 0 0 0 0 0 0 0 0 0 0 0 0 127 0"/>
<feOffset dy="4"/>
<feGaussianBlur stdDeviation="2"/>
<feColorMatrix type="matrix" values="0 0 0 0 0 0 0 0 0 0 0 0 0 0 0 0 0 0 0.25 0"/>
<feBlend mode="normal" in2="BackgroundImageFix" result="effect1_dropShadow"/>
<feBlend mode="normal" in="SourceGraphic" in2="effect1_dropShadow" result="shape"/>
</filter>
<filter id="filter6_d" x="104" y="94" width="42" height="47" filterUnits="userSpaceOnUse" color-interpolation-filters="sRGB">
<feFlood flood-opacity="0" result="BackgroundImageFix"/>
<feColorMatrix in="SourceAlpha" type="matrix" values="0 0 0 0 0 0 0 0 0 0 0 0 0 0 0 0 0 0 127 0"/>
<feOffset dy="4"/>
<feGaussianBlur stdDeviation="2"/>
<feColorMatrix type="matrix" values="0 0 0 0 0 0 0 0 0 0 0 0 0 0 0 0 0 0 0.25 0"/>
<feBlend mode="normal" in2="BackgroundImageFix" result="effect1_dropShadow"/>
<feBlend mode="normal" in="SourceGraphic" in2="effect1_dropShadow" result="shape"/>
</filter>
<filter id="filter7_d" x="39" y="174.5" width="109" height="49.5" filterUnits="userSpaceOnUse" color-interpolation-filters="sRGB">
<feFlood flood-opacity="0" result="BackgroundImageFix"/>
<feColorMatrix in="SourceAlpha" type="matrix" values="0 0 0 0 0 0 0 0 0 0 0 0 0 0 0 0 0 0 127 0"/>
<feOffset dy="4"/>
<feGaussianBlur stdDeviation="2"/>
<feColorMatrix type="matrix" values="0 0 0 0 0 0 0 0 0 0 0 0 0 0 0 0 0 0 0.25 0"/>
<feBlend mode="normal" in2="BackgroundImageFix" result="effect1_dropShadow"/>
<feBlend mode="normal" in="SourceGraphic" in2="effect1_dropShadow" result="shape"/>
</filter>
<filter id="filter8_d" x="50" y="106" width="26" height="30" filterUnits="userSpaceOnUse" color-interpolation-filters="sRGB">
<feFlood flood-opacity="0" result="BackgroundImageFix"/>
<feColorMatrix in="SourceAlpha" type="matrix" values="0 0 0 0 0 0 0 0 0 0 0 0 0 0 0 0 0 0 127 0"/>
<feOffset dy="4"/>
<feGaussianBlur stdDeviation="2"/>
<feColorMatrix type="matrix" values="0 0 0 0 0 0 0 0 0 0 0 0 0 0 0 0 0 0 0.25 0"/>
<feBlend mode="normal" in2="BackgroundImageFix" result="effect1_dropShadow"/>
<feBlend mode="normal" in="SourceGraphic" in2="effect1_dropShadow" result="shape"/>
</filter>
<filter id="filter9_d" x="112" y="106" width="26" height="30" filterUnits="userSpaceOnUse" color-interpolation-filters="sRGB">
<feFlood flood-opacity="0" result="BackgroundImageFix"/>
<feColorMatrix in="SourceAlpha" type="matrix" values="0 0 0 0 0 0 0 0 0 0 0 0 0 0 0 0 0 0 127 0"/>
<feOffset dy="4"/>
<feGaussianBlur stdDeviation="2"/>
<feColorMatrix type="matrix" values="0 0 0 0 0 0 0 0 0 0 0 0 0 0 0 0 0 0 0.25 0"/>
<feBlend mode="normal" in2="BackgroundImageFix" result="effect1_dropShadow"/>
<feBlend mode="normal" in="SourceGraphic" in2="effect1_dropShadow" result="shape"/>
</filter>
</defs>
</svg>
