<svg width="397" height="196" viewBox="0 0 397 196" fill="none" xmlns="http://www.w3.org/2000/svg">
<g filter="url(#filter0_d)">
<path d="M100.5 59.5L179.469 187.25H4.53143L40 117.5L69.5 97L100.5 59.5Z" fill="#E3D1BE"/>
</g>
<g filter="url(#filter1_d)">
<path d="M181.5 0L224.5 54.5L277 96L293.65 187.5H45L73.5 140L101.5 118.5L110 91.5L133 73L163.5 19.5L181.5 0Z" fill="#A86B89"/>
</g>
<g filter="url(#filter2_d)">
<path d="M278 85.5L318.5 142L354 152.5L392.119 187.25H161.5L174.5 166L194 158L231 109.5L278 85.5Z" fill="#764E62"/>
</g>
<g filter="url(#filter3_d)">
<path d="M133.248 98.2H129.384L135.624 80.704H139.008L145.2 98.2H142.008L140.928 94.576H134.448L133.248 98.2ZM135.408 92.512H139.896L137.712 85.096H137.664L135.408 92.512ZM151.469 86.752C151.917 86.752 152.269 86.784 152.525 86.848C152.797 86.912 153.101 87.032 153.437 87.208V80.728H156.581V98.2H153.437V97.36C153.165 97.616 152.853 97.816 152.501 97.96C152.165 98.12 151.805 98.2 151.421 98.2H150.245C149.637 98.2 149.101 98.112 148.637 97.936C148.173 97.776 147.781 97.544 147.461 97.24C147.141 96.936 146.893 96.592 146.717 96.208C146.557 95.808 146.477 95.376 146.477 94.912V89.728C146.477 89.28 146.565 88.88 146.741 88.528C146.917 88.16 147.149 87.848 147.437 87.592C147.725 87.32 148.053 87.112 148.421 86.968C148.805 86.824 149.197 86.752 149.597 86.752H151.469ZM151.565 95.584C151.965 95.584 152.349 95.448 152.717 95.176C153.085 94.888 153.269 94.488 153.269 93.976V90.376C153.269 89.992 153.125 89.64 152.837 89.32C152.565 88.984 152.125 88.816 151.517 88.816H150.677C150.181 88.816 149.765 88.968 149.429 89.272C149.109 89.576 148.949 90.016 148.949 90.592V93.76C148.949 94.256 149.045 94.688 149.237 95.056C149.429 95.408 149.829 95.584 150.437 95.584H151.589H151.565ZM163.328 86.752C163.776 86.752 164.128 86.784 164.384 86.848C164.656 86.912 164.96 87.032 165.296 87.208V80.728H168.44V98.2H165.296V97.36C165.024 97.616 164.712 97.816 164.36 97.96C164.024 98.12 163.664 98.2 163.28 98.2H162.104C161.496 98.2 160.96 98.112 160.496 97.936C160.032 97.776 159.64 97.544 159.32 97.24C159 96.936 158.752 96.592 158.576 96.208C158.416 95.808 158.336 95.376 158.336 94.912V89.728C158.336 89.28 158.424 88.88 158.6 88.528C158.776 88.16 159.008 87.848 159.296 87.592C159.584 87.32 159.912 87.112 160.28 86.968C160.664 86.824 161.056 86.752 161.456 86.752H163.328ZM163.424 95.584C163.824 95.584 164.208 95.448 164.576 95.176C164.944 94.888 165.128 94.488 165.128 93.976V90.376C165.128 89.992 164.984 89.64 164.696 89.32C164.424 88.984 163.984 88.816 163.376 88.816H162.536C162.04 88.816 161.624 88.968 161.288 89.272C160.968 89.576 160.808 90.016 160.808 90.592V93.76C160.808 94.256 160.904 94.688 161.096 95.056C161.288 95.408 161.688 95.584 162.296 95.584H163.448H163.424ZM179.865 98.2H176.001L182.241 80.704H185.625L191.817 98.2H188.625L187.545 94.576H181.065L179.865 98.2ZM182.025 92.512H186.513L184.329 85.096H184.281L182.025 92.512ZM199.572 80.728H206.7C207.82 80.728 208.748 80.856 209.484 81.112C210.22 81.352 210.804 81.688 211.236 82.12C211.668 82.536 211.964 83.016 212.124 83.56C212.3 84.088 212.388 84.64 212.388 85.216C212.388 85.84 212.308 86.368 212.148 86.8C211.988 87.216 211.788 87.568 211.548 87.856C211.324 88.128 211.084 88.344 210.828 88.504C210.572 88.648 210.348 88.768 210.156 88.864C211.228 89.28 211.956 89.832 212.34 90.52C212.724 91.208 212.9 92.032 212.868 92.992C212.836 93.872 212.652 94.64 212.316 95.296C211.98 95.936 211.508 96.472 210.9 96.904C210.292 97.336 209.556 97.656 208.692 97.864C207.844 98.088 206.892 98.2 205.836 98.2H199.572V80.728ZM203.532 87.856H206.82C207.284 87.856 207.716 87.808 208.116 87.712C208.532 87.6 208.884 87.44 209.172 87.232C209.476 87.024 209.708 86.76 209.868 86.44C210.044 86.104 210.132 85.72 210.132 85.288C210.132 84.504 209.828 83.92 209.22 83.536C208.628 83.136 207.788 82.936 206.7 82.936H203.532V87.856ZM203.628 95.296H207.108C207.652 95.296 208.124 95.224 208.524 95.08C208.924 94.92 209.252 94.712 209.508 94.456C209.78 94.2 209.98 93.912 210.108 93.592C210.236 93.272 210.3 92.944 210.3 92.608C210.3 92.16 210.22 91.768 210.06 91.432C209.9 91.096 209.676 90.824 209.388 90.616C209.116 90.392 208.796 90.224 208.428 90.112C208.076 90 207.7 89.944 207.3 89.944H203.628V95.296ZM218.099 98.2C217.587 98.2 217.091 98.128 216.611 97.984C216.147 97.84 215.739 97.616 215.387 97.312C215.035 97.024 214.755 96.656 214.547 96.208C214.339 95.744 214.235 95.2 214.235 94.576V90.304C214.235 89.808 214.347 89.344 214.571 88.912C214.811 88.48 215.123 88.104 215.507 87.784C215.907 87.464 216.371 87.216 216.899 87.04C217.427 86.864 217.987 86.776 218.579 86.776H220.067C220.739 86.776 221.347 86.872 221.891 87.064C222.451 87.256 222.931 87.512 223.331 87.832C223.731 88.152 224.035 88.536 224.243 88.984C224.467 89.432 224.579 89.904 224.579 90.4V94.816C224.579 95.312 224.491 95.768 224.315 96.184C224.139 96.6 223.883 96.952 223.547 97.24C223.211 97.544 222.811 97.776 222.347 97.936C221.883 98.112 221.363 98.2 220.787 98.2H218.099ZM219.947 96.016C220.219 96.016 220.451 95.968 220.643 95.872C220.851 95.76 221.019 95.632 221.147 95.488C221.291 95.328 221.395 95.16 221.459 94.984C221.523 94.792 221.555 94.608 221.555 94.432V91.024C221.555 90.64 221.395 90.272 221.075 89.92C220.771 89.552 220.339 89.368 219.779 89.368H219.107C218.883 89.368 218.659 89.4 218.435 89.464C218.227 89.528 218.027 89.632 217.835 89.776C217.659 89.904 217.515 90.072 217.403 90.28C217.291 90.488 217.235 90.744 217.235 91.048V94.312C217.235 94.44 217.251 94.608 217.283 94.816C217.331 95.008 217.411 95.192 217.523 95.368C217.651 95.544 217.819 95.696 218.027 95.824C218.251 95.952 218.531 96.016 218.867 96.016H219.947ZM229.935 98.2C229.423 98.2 228.927 98.128 228.447 97.984C227.983 97.84 227.575 97.616 227.223 97.312C226.871 97.024 226.591 96.656 226.383 96.208C226.175 95.744 226.071 95.2 226.071 94.576V90.304C226.071 89.808 226.183 89.344 226.407 88.912C226.647 88.48 226.959 88.104 227.343 87.784C227.743 87.464 228.207 87.216 228.735 87.04C229.263 86.864 229.823 86.776 230.415 86.776H231.903C232.575 86.776 233.183 86.872 233.727 87.064C234.287 87.256 234.767 87.512 235.167 87.832C235.567 88.152 235.871 88.536 236.079 88.984C236.303 89.432 236.415 89.904 236.415 90.4V94.816C236.415 95.312 236.327 95.768 236.151 96.184C235.975 96.6 235.719 96.952 235.383 97.24C235.047 97.544 234.647 97.776 234.183 97.936C233.719 98.112 233.199 98.2 232.623 98.2H229.935ZM231.783 96.016C232.055 96.016 232.287 95.968 232.479 95.872C232.687 95.76 232.855 95.632 232.983 95.488C233.127 95.328 233.231 95.16 233.295 94.984C233.359 94.792 233.391 94.608 233.391 94.432V91.024C233.391 90.64 233.231 90.272 232.911 89.92C232.607 89.552 232.175 89.368 231.615 89.368H230.943C230.719 89.368 230.495 89.4 230.271 89.464C230.063 89.528 229.863 89.632 229.671 89.776C229.495 89.904 229.351 90.072 229.239 90.28C229.127 90.488 229.071 90.744 229.071 91.048V94.312C229.071 94.44 229.087 94.608 229.119 94.816C229.167 95.008 229.247 95.192 229.359 95.368C229.487 95.544 229.655 95.696 229.863 95.824C230.087 95.952 230.367 96.016 230.703 96.016H231.783ZM247.915 86.704V89.944L243.619 92.464L247.915 95.008V98.272L241.435 94.552V98.2H238.387V80.728H241.435V90.304L247.915 86.704Z" fill="white"/>
</g>
<defs>
<filter id="filter0_d" x="0.531433" y="59.5" width="182.937" height="135.75" filterUnits="userSpaceOnUse" color-interpolation-filters="sRGB">
<feFlood flood-opacity="0" result="BackgroundImageFix"/>
<feColorMatrix in="SourceAlpha" type="matrix" values="0 0 0 0 0 0 0 0 0 0 0 0 0 0 0 0 0 0 127 0"/>
<feOffset dy="4"/>
<feGaussianBlur stdDeviation="2"/>
<feColorMatrix type="matrix" values="0 0 0 0 0 0 0 0 0 0 0 0 0 0 0 0 0 0 0.25 0"/>
<feBlend mode="normal" in2="BackgroundImageFix" result="effect1_dropShadow"/>
<feBlend mode="normal" in="SourceGraphic" in2="effect1_dropShadow" result="shape"/>
</filter>
<filter id="filter1_d" x="41" y="0" width="256.65" height="195.5" filterUnits="userSpaceOnUse" color-interpolation-filters="sRGB">
<feFlood flood-opacity="0" result="BackgroundImageFix"/>
<feColorMatrix in="SourceAlpha" type="matrix" values="0 0 0 0 0 0 0 0 0 0 0 0 0 0 0 0 0 0 127 0"/>
<feOffset dy="4"/>
<feGaussianBlur stdDeviation="2"/>
<feColorMatrix type="matrix" values="0 0 0 0 0 0 0 0 0 0 0 0 0 0 0 0 0 0 0.25 0"/>
<feBlend mode="normal" in2="BackgroundImageFix" result="effect1_dropShadow"/>
<feBlend mode="normal" in="SourceGraphic" in2="effect1_dropShadow" result="shape"/>
</filter>
<filter id="filter2_d" x="157.5" y="85.5" width="238.619" height="109.75" filterUnits="userSpaceOnUse" color-interpolation-filters="sRGB">
<feFlood flood-opacity="0" result="BackgroundImageFix"/>
<feColorMatrix in="SourceAlpha" type="matrix" values="0 0 0 0 0 0 0 0 0 0 0 0 0 0 0 0 0 0 127 0"/>
<feOffset dy="4"/>
<feGaussianBlur stdDeviation="2"/>
<feColorMatrix type="matrix" values="0 0 0 0 0 0 0 0 0 0 0 0 0 0 0 0 0 0 0.25 0"/>
<feBlend mode="normal" in2="BackgroundImageFix" result="effect1_dropShadow"/>
<feBlend mode="normal" in="SourceGraphic" in2="effect1_dropShadow" result="shape"/>
</filter>
<filter id="filter3_d" x="125.384" y="80.704" width="126.531" height="25.568" filterUnits="userSpaceOnUse" color-interpolation-filters="sRGB">
<feFlood flood-opacity="0" result="BackgroundImageFix"/>
<feColorMatrix in="SourceAlpha" type="matrix" values="0 0 0 0 0 0 0 0 0 0 0 0 0 0 0 0 0 0 127 0"/>
<feOffset dy="4"/>
<feGaussianBlur stdDeviation="2"/>
<feColorMatrix type="matrix" values="0 0 0 0 0 0 0 0 0 0 0 0 0 0 0 0 0 0 0.25 0"/>
<feBlend mode="normal" in2="BackgroundImageFix" result="effect1_dropShadow"/>
<feBlend mode="normal" in="SourceGraphic" in2="effect1_dropShadow" result="shape"/>
</filter>
</defs>
</svg>
