<svg width="416" height="238" viewBox="0 0 416 238" fill="none" xmlns="http://www.w3.org/2000/svg">
<g filter="url(#filter0_d)">
<path d="M205 12L219.5 17L251 37L313 79L405.918 144H4.08211L80 79L140 37L171 17L185 12H205Z" fill="#FFDB5A"/>
</g>
<path d="M198.179 12.6995L182.179 12.6995L198.179 20.6994L203.179 32.1994L203.179 45.6995L200.179 57.1994L195.179 66.1994L187.179 74.6994L178.179 80.6994L171.179 90.1994L167.679 98.6994L167.679 111.699L175.679 123.699L190.679 136.699L218.179 145.199L398.179 145.199L255.179 45.6995L209.679 17.1995L198.179 12.6995Z" fill="#F29024" stroke="#F29024"/>
<path d="M213.179 12.6995L197.179 12.6995L213.179 20.6994L218.179 32.1994L218.179 45.6995L215.179 57.1994L210.179 66.1994L202.179 74.6994L193.179 80.6994L186.179 90.1994L182.679 98.6994L182.679 111.699L190.679 123.699L205.679 136.699L233.179 145.199L413.179 145.199L270.179 45.6995L224.679 17.1995L213.179 12.6995Z" fill="#D56261" stroke="#E77D7C"/>
<path d="M227.08 69.104H219.424V73.904H226.168V76.232H219.424V84.2H215.368V66.728H227.08V69.104ZM237.225 72.728V75.776C236.889 75.776 236.497 75.792 236.049 75.824C235.601 75.856 235.121 75.928 234.609 76.04C234.097 76.136 233.577 76.288 233.049 76.496C232.521 76.704 232.009 76.992 231.513 77.36V84.2H228.225V72.776H231.513V74.384C231.753 74.208 232.049 74.024 232.401 73.832C232.753 73.64 233.161 73.472 233.625 73.328C234.105 73.168 234.641 73.032 235.233 72.92C235.841 72.808 236.505 72.744 237.225 72.728ZM239.49 70.616V67.784H242.394V70.616H239.49ZM239.49 84.2V72.8H242.394V84.2H239.49ZM250.503 72.776C251.063 72.776 251.599 72.864 252.111 73.04C252.623 73.216 253.071 73.464 253.455 73.784C253.855 74.104 254.167 74.504 254.391 74.984C254.631 75.448 254.751 75.968 254.751 76.544V79.256H247.623V80.36C247.623 80.504 247.647 80.68 247.695 80.888C247.759 81.096 247.863 81.296 248.007 81.488C248.151 81.664 248.351 81.816 248.607 81.944C248.863 82.072 249.191 82.136 249.591 82.136H250.527C251.679 82.136 252.255 81.608 252.255 80.552H254.967V81.272C254.967 81.848 254.855 82.328 254.631 82.712C254.407 83.08 254.111 83.376 253.743 83.6C253.375 83.824 252.951 83.976 252.471 84.056C251.991 84.152 251.495 84.2 250.983 84.2H248.679C248.279 84.2 247.863 84.144 247.431 84.032C247.015 83.92 246.615 83.728 246.231 83.456C245.863 83.2 245.543 82.856 245.271 82.424C244.999 81.976 244.815 81.432 244.719 80.792V76.544C244.719 76.016 244.839 75.528 245.079 75.08C245.319 74.616 245.639 74.216 246.039 73.88C246.439 73.528 246.903 73.256 247.431 73.064C247.975 72.872 248.543 72.776 249.135 72.776H250.503ZM247.623 77.456H252.015V76.736C252.015 76.528 251.959 76.328 251.847 76.136C251.751 75.928 251.615 75.752 251.439 75.608C251.263 75.448 251.063 75.328 250.839 75.248C250.615 75.152 250.391 75.104 250.167 75.104H249.399C249.175 75.104 248.951 75.152 248.727 75.248C248.519 75.328 248.327 75.448 248.151 75.608C247.991 75.752 247.863 75.928 247.767 76.136C247.671 76.328 247.623 76.528 247.623 76.736V77.456ZM265.289 84.2V77.792C265.289 77.552 265.241 77.312 265.145 77.072C265.065 76.832 264.945 76.624 264.785 76.448C264.625 76.272 264.441 76.128 264.233 76.016C264.041 75.904 263.841 75.848 263.633 75.848H262.001C261.825 75.848 261.641 75.888 261.449 75.968C261.273 76.048 261.105 76.16 260.945 76.304C260.785 76.448 260.649 76.616 260.537 76.808C260.441 77 260.393 77.2 260.393 77.408V84.2H256.865V72.512H260.393V73.472C260.617 73.344 260.881 73.24 261.185 73.16C261.489 73.064 261.777 73.016 262.049 73.016H263.801C264.345 73.016 264.857 73.112 265.337 73.304C265.817 73.496 266.233 73.768 266.585 74.12C266.937 74.472 267.217 74.912 267.425 75.44C267.633 75.952 267.737 76.528 267.737 77.168V84.2H265.289ZM274.32 72.752C274.768 72.752 275.12 72.784 275.376 72.848C275.648 72.912 275.952 73.032 276.288 73.208V66.728H279.432V84.2H276.288V83.36C276.016 83.616 275.704 83.816 275.352 83.96C275.016 84.12 274.656 84.2 274.272 84.2H273.096C272.488 84.2 271.952 84.112 271.488 83.936C271.024 83.776 270.632 83.544 270.312 83.24C269.992 82.936 269.744 82.592 269.568 82.208C269.408 81.808 269.328 81.376 269.328 80.912V75.728C269.328 75.28 269.416 74.88 269.592 74.528C269.768 74.16 270 73.848 270.288 73.592C270.576 73.32 270.904 73.112 271.272 72.968C271.656 72.824 272.048 72.752 272.448 72.752H274.32ZM274.416 81.584C274.816 81.584 275.2 81.448 275.568 81.176C275.936 80.888 276.12 80.488 276.12 79.976V76.376C276.12 75.992 275.976 75.64 275.688 75.32C275.416 74.984 274.976 74.816 274.368 74.816H273.528C273.032 74.816 272.616 74.968 272.28 75.272C271.96 75.576 271.8 76.016 271.8 76.592V79.76C271.8 80.256 271.896 80.688 272.088 81.056C272.28 81.408 272.68 81.584 273.288 81.584H274.44H274.416ZM281.38 83.144V80.912C282.148 81.232 282.916 81.536 283.684 81.824C284.468 82.112 285.22 82.224 285.94 82.16C286.164 82.16 286.38 82.152 286.588 82.136C286.796 82.104 286.98 82.056 287.14 81.992C287.316 81.928 287.468 81.832 287.596 81.704C287.724 81.56 287.812 81.376 287.86 81.152C287.924 80.88 287.892 80.64 287.764 80.432C287.652 80.208 287.492 80.016 287.284 79.856C287.076 79.696 286.844 79.568 286.588 79.472C286.332 79.376 286.108 79.304 285.916 79.256C285.276 79.096 284.676 78.944 284.116 78.8C283.572 78.64 283.1 78.44 282.7 78.2C282.3 77.96 281.98 77.656 281.74 77.288C281.516 76.92 281.404 76.448 281.404 75.872C281.404 75.104 281.612 74.472 282.028 73.976C282.46 73.48 282.996 73.104 283.636 72.848C284.276 72.576 284.956 72.424 285.676 72.392C286.412 72.344 287.092 72.392 287.716 72.536C288.18 72.648 288.628 72.784 289.06 72.944C289.492 73.104 289.892 73.32 290.26 73.592V76.016C289.988 75.792 289.724 75.6 289.468 75.44C289.212 75.264 288.9 75.096 288.532 74.936C288.292 74.824 288.028 74.736 287.74 74.672C287.452 74.592 287.164 74.552 286.876 74.552C286.588 74.536 286.3 74.56 286.012 74.624C285.74 74.688 285.492 74.808 285.268 74.984C285.092 75.128 284.98 75.288 284.932 75.464C284.884 75.624 284.884 75.784 284.932 75.944C284.996 76.104 285.092 76.256 285.22 76.4C285.348 76.528 285.5 76.616 285.676 76.664C286.332 76.872 286.908 77.064 287.404 77.24C287.916 77.4 288.452 77.592 289.012 77.816C289.46 78.008 289.82 78.224 290.092 78.464C290.364 78.704 290.572 78.968 290.716 79.256C290.86 79.528 290.956 79.816 291.004 80.12C291.052 80.424 291.076 80.728 291.076 81.032C291.076 81.656 290.916 82.192 290.596 82.64C290.292 83.088 289.892 83.456 289.396 83.744C288.916 84.032 288.372 84.24 287.764 84.368C287.172 84.496 286.588 84.56 286.012 84.56C285.148 84.56 284.34 84.44 283.588 84.2C282.852 83.96 282.116 83.608 281.38 83.144Z" fill="white"/>
<defs>
<filter id="filter0_d" x="0.0821075" y="12" width="409.836" height="140" filterUnits="userSpaceOnUse" color-interpolation-filters="sRGB">
<feFlood flood-opacity="0" result="BackgroundImageFix"/>
<feColorMatrix in="SourceAlpha" type="matrix" values="0 0 0 0 0 0 0 0 0 0 0 0 0 0 0 0 0 0 127 0"/>
<feOffset dy="4"/>
<feGaussianBlur stdDeviation="2"/>
<feColorMatrix type="matrix" values="0 0 0 0 0 0 0 0 0 0 0 0 0 0 0 0 0 0 0.25 0"/>
<feBlend mode="normal" in2="BackgroundImageFix" result="effect1_dropShadow"/>
<feBlend mode="normal" in="SourceGraphic" in2="effect1_dropShadow" result="shape"/>
</filter>
</defs>
</svg>
