<svg width="410" height="141" viewBox="0 0 410 141" fill="none" xmlns="http://www.w3.org/2000/svg">
<g filter="url(#filter0_d)">
<path d="M205 1L219.5 6L251 26L313 68L405.918 133H4.08211L80 68L140 26L171 6L185 1H205Z" fill="#FFDB5A"/>
</g>
<path d="M167.071 10.249C171.609 6.18101 177.968 3.14173 184.085 3.00482C186.703 3.07186 188.011 3.84037 190.019 5.44655C190.96 6.19908 191.73 7.93715 192.488 8.91249C193.537 10.261 195.746 10.7474 197.359 10.7474C199.734 10.7474 201.568 9.99049 203.679 8.93514C205.647 7.95131 208.253 7.79219 210.384 7.50799C213.661 7.07111 217.298 7.48534 220.601 7.48534C223.812 7.48534 226.714 10.2308 229.051 12.1519C232.625 15.0907 233.951 18.5879 235.076 22.8895C237.613 32.59 237.503 41.9564 246.267 48.3517C252.027 52.5547 259.397 51.5232 266.157 51.5232C273.714 51.5232 280.964 50.8853 288.311 53.3807C293.486 55.1382 297.952 57.9647 301.518 62.1249C304.119 65.1596 306.876 68.7031 308.065 72.568C309.87 78.4353 312.07 83.2561 316.424 87.6097C320.036 91.2219 325.572 94.5294 330.514 95.7649C337.165 97.4275 344.09 95.9048 350.698 98.3247C356.531 100.461 362.14 101.928 366.556 106.344C369.244 109.032 372.149 110.743 375.164 113.004C377.343 114.638 379.5 116.469 381.779 117.988C385.02 120.149 388.103 122.512 391.655 124.195C394.845 125.706 398.747 127.194 401.645 129.201C402.168 129.563 406.804 132.446 406.108 132.644C405.475 132.825 403.619 131.996 402.869 131.829C399.946 131.179 397.842 128.997 394.714 128.997C390.688 128.997 386.353 128.301 382.481 127.162C377.095 125.578 372.042 124.864 367.734 120.751C365.201 118.334 362.704 116.159 360.575 113.321C358.159 110.1 355.943 108.219 352.194 106.661C347.021 104.513 340.595 103.692 335.294 105.846C329.882 108.044 325.474 110.72 319.528 111.373C314.144 111.964 308.398 111.31 303.444 109.108C299.756 107.469 297.409 104.254 295.017 101.179C293.749 99.5485 293.053 97.5023 291.438 96.15C289.259 94.3261 286.785 92.7699 284.234 91.5287C276.324 87.6808 266.591 88.8429 258.192 89.8459L258.137 89.8524C253.752 90.3761 249.331 91.4132 244.908 91.4834C241.014 91.5453 237.114 91.4834 233.219 91.4834C226.287 91.4834 219.436 90.128 213.896 85.7748C211.145 83.6139 208.498 81.2893 207.145 77.9821C205.847 74.8104 206.533 70.5827 206.533 67.2219C206.533 62.9264 208.338 59.0029 208.98 54.8305C209.357 52.3773 210.117 49.2894 208.323 47.2191C204.902 43.272 198.57 42.9603 193.757 42.9603C188.019 42.9603 182.302 42.8216 176.676 41.5558C167.777 39.5534 157.971 31.3768 160.366 21.5303C161.528 16.7534 163.472 13.4758 167.071 10.249Z" fill="#F29024"/>
<path d="M184.514 3C178.266 3 171.715 6.08577 167.071 10.249C163.472 13.4758 161.528 16.7534 160.366 21.5303C157.971 31.3768 167.777 39.5534 176.676 41.5558C182.302 42.8216 188.019 42.9603 193.757 42.9603C198.57 42.9603 204.902 43.272 208.323 47.2191C210.117 49.2894 209.357 52.3773 208.98 54.8305C208.338 59.0029 206.533 62.9264 206.533 67.2219C206.533 70.5827 205.847 74.8104 207.145 77.9821C208.498 81.2893 211.145 83.6139 213.896 85.7748C219.436 90.128 226.287 91.4834 233.219 91.4834C237.114 91.4834 241.014 91.5453 244.908 91.4834C249.331 91.4132 253.752 90.3761 258.137 89.8524C266.549 88.848 276.307 87.6725 284.234 91.5287C286.785 92.7699 289.259 94.3261 291.438 96.15C293.053 97.5023 293.749 99.5485 295.017 101.179C297.409 104.254 299.756 107.469 303.444 109.108C308.398 111.31 314.144 111.964 319.528 111.373C325.474 110.72 329.882 108.044 335.294 105.846C340.595 103.692 347.021 104.513 352.194 106.661C355.943 108.219 358.159 110.1 360.575 113.321C362.704 116.159 365.201 118.334 367.734 120.751C372.042 124.864 377.095 125.578 382.481 127.162C386.353 128.301 390.688 128.997 394.714 128.997C397.842 128.997 399.946 131.179 402.869 131.829C403.619 131.996 405.475 132.825 406.108 132.644C406.804 132.446 402.168 129.563 401.645 129.201C398.747 127.194 394.845 125.706 391.655 124.195C388.103 122.512 385.02 120.149 381.779 117.988C379.5 116.469 377.343 114.638 375.164 113.004C372.149 110.743 369.244 109.032 366.556 106.344C362.14 101.928 356.531 100.461 350.698 98.3247C344.09 95.9048 337.165 97.4275 330.514 95.7649C325.572 94.5294 320.036 91.2219 316.424 87.6097C312.07 83.2561 309.87 78.4353 308.065 72.568C306.876 68.7031 304.119 65.1596 301.518 62.1249C297.952 57.9647 293.486 55.1382 288.311 53.3807C280.964 50.8853 273.714 51.5232 266.157 51.5232C259.397 51.5232 252.027 52.5547 246.267 48.3517C237.503 41.9564 237.613 32.59 235.076 22.8895C233.951 18.5879 232.625 15.0907 229.051 12.1519C226.714 10.2308 223.812 7.48534 220.601 7.48534C217.298 7.48534 213.661 7.07111 210.384 7.50799C208.253 7.79219 205.647 7.95131 203.679 8.93514C201.568 9.99049 199.734 10.7474 197.359 10.7474C195.746 10.7474 193.537 10.261 192.488 8.91249C191.73 7.93715 190.96 6.19908 190.019 5.44655C187.915 3.76327 186.579 3 183.699 3" stroke="#F29024" stroke-linecap="round" stroke-linejoin="round"/>
<g filter="url(#filter1_d)">
<path d="M222.26 62.788H213.328V68.388H221.196V71.104H213.328V80.4H208.596V60.016H222.26V62.788ZM234.096 67.016V70.572C233.704 70.572 233.247 70.5907 232.724 70.628C232.201 70.6653 231.641 70.7493 231.044 70.88C230.447 70.992 229.84 71.1693 229.224 71.412C228.608 71.6547 228.011 71.9907 227.432 72.42V80.4H223.596V67.072H227.432V68.948C227.712 68.7427 228.057 68.528 228.468 68.304C228.879 68.08 229.355 67.884 229.896 67.716C230.456 67.5293 231.081 67.3707 231.772 67.24C232.481 67.1093 233.256 67.0347 234.096 67.016ZM236.738 64.552V61.248H240.126V64.552H236.738ZM236.738 80.4V67.1H240.126V80.4H236.738ZM249.587 67.072C250.24 67.072 250.865 67.1747 251.463 67.38C252.06 67.5853 252.583 67.8747 253.031 68.248C253.497 68.6213 253.861 69.088 254.123 69.648C254.403 70.1893 254.543 70.796 254.543 71.468V74.632H246.227V75.92C246.227 76.088 246.255 76.2933 246.311 76.536C246.385 76.7787 246.507 77.012 246.675 77.236C246.843 77.4413 247.076 77.6187 247.375 77.768C247.673 77.9173 248.056 77.992 248.523 77.992H249.615C250.959 77.992 251.631 77.376 251.631 76.144H254.795V76.984C254.795 77.656 254.664 78.216 254.403 78.664C254.141 79.0933 253.796 79.4387 253.367 79.7C252.937 79.9613 252.443 80.1387 251.883 80.232C251.323 80.344 250.744 80.4 250.147 80.4H247.459C246.992 80.4 246.507 80.3347 246.003 80.204C245.517 80.0733 245.051 79.8493 244.603 79.532C244.173 79.2333 243.8 78.832 243.483 78.328C243.165 77.8053 242.951 77.1707 242.839 76.424V71.468C242.839 70.852 242.979 70.2827 243.259 69.76C243.539 69.2187 243.912 68.752 244.379 68.36C244.845 67.9493 245.387 67.632 246.003 67.408C246.637 67.184 247.3 67.072 247.991 67.072H249.587ZM246.227 72.532H251.351V71.692C251.351 71.4493 251.285 71.216 251.155 70.992C251.043 70.7493 250.884 70.544 250.679 70.376C250.473 70.1893 250.24 70.0493 249.979 69.956C249.717 69.844 249.456 69.788 249.195 69.788H248.299C248.037 69.788 247.776 69.844 247.515 69.956C247.272 70.0493 247.048 70.1893 246.843 70.376C246.656 70.544 246.507 70.7493 246.395 70.992C246.283 71.216 246.227 71.4493 246.227 71.692V72.532ZM266.837 80.4V72.924C266.837 72.644 266.781 72.364 266.669 72.084C266.575 71.804 266.435 71.5613 266.249 71.356C266.062 71.1507 265.847 70.9827 265.605 70.852C265.381 70.7213 265.147 70.656 264.905 70.656H263.001C262.795 70.656 262.581 70.7027 262.357 70.796C262.151 70.8893 261.955 71.02 261.769 71.188C261.582 71.356 261.423 71.552 261.293 71.776C261.181 72 261.125 72.2333 261.125 72.476V80.4H257.009V66.764H261.125V67.884C261.386 67.7347 261.694 67.6133 262.049 67.52C262.403 67.408 262.739 67.352 263.057 67.352H265.101C265.735 67.352 266.333 67.464 266.893 67.688C267.453 67.912 267.938 68.2293 268.349 68.64C268.759 69.0507 269.086 69.564 269.329 70.18C269.571 70.7773 269.693 71.4493 269.693 72.196V80.4H266.837ZM277.374 67.044C277.896 67.044 278.307 67.0813 278.606 67.156C278.923 67.2307 279.278 67.3707 279.67 67.576V60.016H283.338V80.4H279.67V79.42C279.352 79.7187 278.988 79.952 278.578 80.12C278.186 80.3067 277.766 80.4 277.318 80.4H275.946C275.236 80.4 274.611 80.2973 274.07 80.092C273.528 79.9053 273.071 79.6347 272.698 79.28C272.324 78.9253 272.035 78.524 271.83 78.076C271.643 77.6093 271.55 77.1053 271.55 76.564V70.516C271.55 69.9933 271.652 69.5267 271.858 69.116C272.063 68.6867 272.334 68.3227 272.67 68.024C273.006 67.7067 273.388 67.464 273.818 67.296C274.266 67.128 274.723 67.044 275.19 67.044H277.374ZM277.486 77.348C277.952 77.348 278.4 77.1893 278.83 76.872C279.259 76.536 279.474 76.0693 279.474 75.472V71.272C279.474 70.824 279.306 70.4133 278.97 70.04C278.652 69.648 278.139 69.452 277.43 69.452H276.45C275.871 69.452 275.386 69.6293 274.994 69.984C274.62 70.3387 274.434 70.852 274.434 71.524V75.22C274.434 75.7987 274.546 76.3027 274.77 76.732C274.994 77.1427 275.46 77.348 276.17 77.348H277.514H277.486ZM285.61 79.168V76.564C286.506 76.9373 287.402 77.292 288.298 77.628C289.212 77.964 290.09 78.0947 290.93 78.02C291.191 78.02 291.443 78.0107 291.686 77.992C291.928 77.9547 292.143 77.8987 292.33 77.824C292.535 77.7493 292.712 77.6373 292.862 77.488C293.011 77.32 293.114 77.1053 293.17 76.844C293.244 76.5267 293.207 76.2467 293.058 76.004C292.927 75.7427 292.74 75.5187 292.498 75.332C292.255 75.1453 291.984 74.996 291.686 74.884C291.387 74.772 291.126 74.688 290.902 74.632C290.155 74.4453 289.455 74.268 288.802 74.1C288.167 73.9133 287.616 73.68 287.15 73.4C286.683 73.12 286.31 72.7653 286.03 72.336C285.768 71.9067 285.638 71.356 285.638 70.684C285.638 69.788 285.88 69.0507 286.366 68.472C286.87 67.8933 287.495 67.4547 288.242 67.156C288.988 66.8387 289.782 66.6613 290.622 66.624C291.48 66.568 292.274 66.624 293.002 66.792C293.543 66.9227 294.066 67.0813 294.57 67.268C295.074 67.4547 295.54 67.7067 295.97 68.024V70.852C295.652 70.5907 295.344 70.3667 295.046 70.18C294.747 69.9747 294.383 69.7787 293.954 69.592C293.674 69.4613 293.366 69.3587 293.03 69.284C292.694 69.1907 292.358 69.144 292.022 69.144C291.686 69.1253 291.35 69.1533 291.014 69.228C290.696 69.3027 290.407 69.4427 290.146 69.648C289.94 69.816 289.81 70.0027 289.754 70.208C289.698 70.3947 289.698 70.5813 289.754 70.768C289.828 70.9547 289.94 71.132 290.09 71.3C290.239 71.4493 290.416 71.552 290.622 71.608C291.387 71.8507 292.059 72.0747 292.638 72.28C293.235 72.4667 293.86 72.6907 294.514 72.952C295.036 73.176 295.456 73.428 295.774 73.708C296.091 73.988 296.334 74.296 296.502 74.632C296.67 74.9493 296.782 75.2853 296.838 75.64C296.894 75.9947 296.922 76.3493 296.922 76.704C296.922 77.432 296.735 78.0573 296.362 78.58C296.007 79.1027 295.54 79.532 294.962 79.868C294.402 80.204 293.767 80.4467 293.058 80.596C292.367 80.7453 291.686 80.82 291.014 80.82C290.006 80.82 289.063 80.68 288.186 80.4C287.327 80.12 286.468 79.7093 285.61 79.168Z" fill="white"/>
</g>
<path d="M205.511 1.76442C198.868 1.76442 192.07 1.45684 185.327 1.37596C184.406 1.37596 181.261 2.00409 180.638 2.78381C179.501 4.20459 178.372 3.84172 176.877 4.30158C174.306 5.09261 170.425 7.45392 173.502 10.5312C176.709 13.738 180.498 16.4437 185.327 16.4437C191.134 16.4437 196.839 16.8515 202.657 16.8515C208.449 16.8515 214.428 17.3498 219.465 20.5213C225.189 24.1251 227.747 28.1843 230.588 34.1812C232.417 38.0427 234.126 43.2598 238.132 45.4851C242.143 47.7136 246.562 50.2876 251.361 50.2876C256.738 50.2876 262.057 51.1031 267.49 51.1031C270.001 51.1031 272.505 51.4214 274.92 51.5109C277.939 51.6227 279.867 52.3491 282.758 53.2325C288.721 55.0545 290.93 59.8399 294.606 64.3326C297.543 67.9223 300.073 72.0421 303.282 75.2514C306.143 78.112 307.333 82.5483 310.305 85.3548C313.834 88.6877 317.737 91.9993 322.537 93.7138C327.972 95.6548 332.574 97.415 338.44 97.5875C341.408 97.6748 344.368 98.403 347.388 98.403C349.436 98.403 351.325 98.3406 353.323 98.8108C354.391 99.062 355.612 99.0832 356.562 99.6263C356.765 99.742 357.643 101.016 357.605 100.442C357.517 99.1277 354.593 97.8382 353.731 96.9759C351.174 94.4192 348.418 92.297 345.87 89.7495C344.263 88.1427 342.353 86.5431 340.275 85.5586C338.844 84.8809 337.678 83.8199 336.401 82.9082C334.922 81.8514 333.156 81.248 331.825 79.9633C328.034 76.3025 322.966 71.2519 317.803 69.4296C315.423 68.5895 312.985 66.7611 310.735 65.5559C309.008 64.6306 307.35 63.4395 305.729 62.3391C304.711 61.6488 303.65 60.9373 302.557 60.3909C301.756 59.9903 301.442 59.1703 300.722 58.8505C299.011 58.0899 297.378 56.0429 296.033 54.7729C294.923 53.724 292.894 52.5009 291.548 51.828C290.02 51.0639 288.475 50.0688 287.266 48.8604C285.949 47.5436 284.373 47.4513 282.804 47.0029C279.317 46.0067 275.031 42.6022 272.383 40.0937C265.334 33.4154 257.312 28.2797 249.345 22.7639C246.203 20.5887 242.714 18.6273 239.355 16.7608C237.345 15.6443 235.4 14.3438 233.261 13.4082C231.11 12.4671 228.206 11.6843 226.307 10.3273C220.295 6.03326 213.024 1.76442 205.511 1.76442Z" fill="#D56261"/>
<path d="M182.269 1.35666C190.008 1.35666 197.862 1.76442 205.511 1.76442C213.024 1.76442 220.295 6.03326 226.307 10.3273C228.206 11.6843 231.11 12.4671 233.261 13.4082C235.4 14.3438 237.345 15.6443 239.355 16.7608C242.714 18.6273 246.203 20.5887 249.345 22.7639C257.312 28.2797 265.334 33.4154 272.383 40.0937C275.031 42.6022 279.317 46.0067 282.804 47.0029C284.373 47.4513 285.949 47.5436 287.266 48.8604C288.475 50.0688 290.02 51.0639 291.548 51.828C292.894 52.5009 294.922 53.724 296.033 54.7729C297.378 56.0429 299.011 58.0899 300.722 58.8505C301.442 59.1703 301.756 59.9903 302.557 60.3909C303.65 60.9373 304.711 61.6488 305.729 62.3391C307.35 63.4395 309.008 64.6306 310.735 65.5559C312.985 66.7611 315.423 68.5895 317.803 69.4296C322.966 71.2519 328.034 76.3025 331.825 79.9633C333.156 81.248 334.922 81.8514 336.401 82.9082C337.678 83.8199 338.844 84.8808 340.275 85.5586C342.353 86.5431 344.263 88.1427 345.87 89.7495C348.418 92.297 351.174 94.4192 353.731 96.9759C354.593 97.8382 357.517 99.1277 357.605 100.442C357.643 101.016 356.765 99.742 356.562 99.6263C355.612 99.0832 354.391 99.0619 353.323 98.8108C351.325 98.3406 349.436 98.403 347.388 98.403C344.368 98.403 341.408 97.6748 338.44 97.5875C332.574 97.415 327.972 95.6548 322.537 93.7138C317.737 91.9993 313.834 88.6877 310.305 85.3548C307.333 82.5483 306.143 78.112 303.282 75.2514C300.073 72.0421 297.543 67.9223 294.606 64.3326C290.93 59.8399 288.721 55.0545 282.758 53.2325C279.867 52.3491 277.939 51.6227 274.92 51.5109C272.505 51.4214 270.001 51.1031 267.49 51.1031C262.057 51.1031 256.738 50.2876 251.361 50.2876C246.562 50.2876 242.143 47.7136 238.132 45.4851C234.126 43.2598 232.417 38.0427 230.588 34.1812C227.747 28.1843 225.189 24.1251 219.465 20.5213C214.428 17.3498 208.449 16.8515 202.657 16.8515C196.839 16.8515 191.134 16.4437 185.327 16.4437C180.498 16.4437 176.709 13.738 173.502 10.5312C170.425 7.45392 174.306 5.09261 176.877 4.30158C178.372 3.84172 179.501 4.20459 180.638 2.78381C181.261 2.00409 184.406 1.37596 185.327 1.37596" stroke="#EB6825" stroke-linecap="round" stroke-linejoin="round"/>
<defs>
<filter id="filter0_d" x="0.0821075" y="1" width="409.836" height="140" filterUnits="userSpaceOnUse" color-interpolation-filters="sRGB">
<feFlood flood-opacity="0" result="BackgroundImageFix"/>
<feColorMatrix in="SourceAlpha" type="matrix" values="0 0 0 0 0 0 0 0 0 0 0 0 0 0 0 0 0 0 127 0"/>
<feOffset dy="4"/>
<feGaussianBlur stdDeviation="2"/>
<feColorMatrix type="matrix" values="0 0 0 0 0 0 0 0 0 0 0 0 0 0 0 0 0 0 0.25 0"/>
<feBlend mode="normal" in2="BackgroundImageFix" result="effect1_dropShadow"/>
<feBlend mode="normal" in="SourceGraphic" in2="effect1_dropShadow" result="shape"/>
</filter>
<filter id="filter1_d" x="204.596" y="60.016" width="96.3256" height="28.804" filterUnits="userSpaceOnUse" color-interpolation-filters="sRGB">
<feFlood flood-opacity="0" result="BackgroundImageFix"/>
<feColorMatrix in="SourceAlpha" type="matrix" values="0 0 0 0 0 0 0 0 0 0 0 0 0 0 0 0 0 0 127 0"/>
<feOffset dy="4"/>
<feGaussianBlur stdDeviation="2"/>
<feColorMatrix type="matrix" values="0 0 0 0 0 0 0 0 0 0 0 0 0 0 0 0 0 0 0.25 0"/>
<feBlend mode="normal" in2="BackgroundImageFix" result="effect1_dropShadow"/>
<feBlend mode="normal" in="SourceGraphic" in2="effect1_dropShadow" result="shape"/>
</filter>
</defs>
</svg>
