<svg width="264" height="257" viewBox="0 0 264 257" fill="none" xmlns="http://www.w3.org/2000/svg">
<rect x="103" y="89" width="56" height="73" fill="#FFDB5A"/>
<path d="M31 118H40.6769V128H49.6769V118H58.6769V128H67.1769V118H76.1769V128H84.1769V118H92.1769V128H105.177V133.75H31L31 118Z" fill="#FFDB5A"/>
<path d="M128.624 118H141.93V126.889H169.5V118H178V126.889H188V118L197.5 118V126.889H206.5V118H214.5V126.889H223.624V118H233.124V134L128.624 132L128.624 118Z" fill="#FFDB5A"/>
<rect x="31" y="132" width="202" height="69" fill="#FFDB5A"/>
<g filter="url(#filter0_d)">
<path d="M131.5 40L176.966 112.75H86.0337L131.5 40Z" fill="#FFDB5A"/>
</g>
<g filter="url(#filter1_d)">
<rect x="4" y="177" width="254" height="70" fill="#FFDB5A"/>
</g>
<g filter="url(#filter2_d)">
<path d="M4 152H11.082V162H18.1639V152H24.8525V162H31.541V152H37.8361V162H44.5246V152H52V162V249H4V152Z" fill="#FFDB5A"/>
</g>
<g filter="url(#filter3_d)">
<path d="M210 154H217.377V163.794H224.754V154H231.721V163.794H238.689V154H245.246V163.794H252.213V154H260V163.794V249H210V154Z" fill="#FFDB5A"/>
</g>
<path d="M131 186L145 192L156.115 204.5L158.5 225.5L156.115 246.75H105.885L103.5 225.5L105.885 204.5L115.5 192L131 186Z" fill="#F29024"/>
<g filter="url(#filter4_d)">
<path d="M168.202 13.3869L129.721 30.8766L126.591 5.95766L168.202 13.3869Z" fill="#CD1515"/>
</g>
<line x1="126.497" y1="5.94478" x2="130.497" y2="41.9448" stroke="black"/>
<g filter="url(#filter5_d)">
<path d="M67.08 146.104H59.424V150.904H66.168V153.232H59.424V161.2H55.368V143.728H67.08V146.104ZM68.8491 147.616V144.784H71.7531V147.616H68.8491ZM68.8491 161.2V149.8H71.7531V161.2H68.8491ZM82.7183 161.2V154.792C82.7183 154.552 82.6703 154.312 82.5743 154.072C82.4943 153.832 82.3743 153.624 82.2143 153.448C82.0543 153.272 81.8703 153.128 81.6623 153.016C81.4703 152.904 81.2703 152.848 81.0623 152.848H79.4303C79.2543 152.848 79.0703 152.888 78.8783 152.968C78.7023 153.048 78.5343 153.16 78.3743 153.304C78.2143 153.448 78.0783 153.616 77.9663 153.808C77.8703 154 77.8223 154.2 77.8223 154.408V161.2H74.2943V149.512H77.8223V150.472C78.0463 150.344 78.3103 150.24 78.6143 150.16C78.9183 150.064 79.2063 150.016 79.4783 150.016H81.2303C81.7743 150.016 82.2863 150.112 82.7663 150.304C83.2463 150.496 83.6623 150.768 84.0143 151.12C84.3663 151.472 84.6463 151.912 84.8543 152.44C85.0623 152.952 85.1663 153.528 85.1663 154.168V161.2H82.7183ZM87.6459 147.616V144.784H90.5499V147.616H87.6459ZM87.6459 161.2V149.8H90.5499V161.2H87.6459ZM93.0671 160.144V157.912C93.8351 158.232 94.6031 158.536 95.3711 158.824C96.1551 159.112 96.9071 159.224 97.6271 159.16C97.8511 159.16 98.0671 159.152 98.2751 159.136C98.4831 159.104 98.6671 159.056 98.8271 158.992C99.0031 158.928 99.1551 158.832 99.2831 158.704C99.4111 158.56 99.4991 158.376 99.5471 158.152C99.6111 157.88 99.5791 157.64 99.4511 157.432C99.3391 157.208 99.1791 157.016 98.9711 156.856C98.7631 156.696 98.5311 156.568 98.2751 156.472C98.0191 156.376 97.7951 156.304 97.6031 156.256C96.9631 156.096 96.3631 155.944 95.8031 155.8C95.2591 155.64 94.7871 155.44 94.3871 155.2C93.9871 154.96 93.6671 154.656 93.4271 154.288C93.2031 153.92 93.0911 153.448 93.0911 152.872C93.0911 152.104 93.2991 151.472 93.7151 150.976C94.1471 150.48 94.6831 150.104 95.3231 149.848C95.9631 149.576 96.6431 149.424 97.3631 149.392C98.0991 149.344 98.7791 149.392 99.4031 149.536C99.8671 149.648 100.315 149.784 100.747 149.944C101.179 150.104 101.579 150.32 101.947 150.592V153.016C101.675 152.792 101.411 152.6 101.155 152.44C100.899 152.264 100.587 152.096 100.219 151.936C99.9791 151.824 99.7151 151.736 99.4271 151.672C99.1391 151.592 98.8511 151.552 98.5631 151.552C98.2751 151.536 97.9871 151.56 97.6991 151.624C97.4271 151.688 97.1791 151.808 96.9551 151.984C96.7791 152.128 96.6671 152.288 96.6191 152.464C96.5711 152.624 96.5711 152.784 96.6191 152.944C96.6831 153.104 96.7791 153.256 96.9071 153.4C97.0351 153.528 97.1871 153.616 97.3631 153.664C98.0191 153.872 98.5951 154.064 99.0911 154.24C99.6031 154.4 100.139 154.592 100.699 154.816C101.147 155.008 101.507 155.224 101.779 155.464C102.051 155.704 102.259 155.968 102.403 156.256C102.547 156.528 102.643 156.816 102.691 157.12C102.739 157.424 102.763 157.728 102.763 158.032C102.763 158.656 102.603 159.192 102.283 159.64C101.979 160.088 101.579 160.456 101.083 160.744C100.603 161.032 100.059 161.24 99.4511 161.368C98.8591 161.496 98.2751 161.56 97.6991 161.56C96.8351 161.56 96.0271 161.44 95.2751 161.2C94.5391 160.96 93.8031 160.608 93.0671 160.144ZM112.428 154.576C112.428 154.144 112.372 153.792 112.26 153.52C112.164 153.248 112.028 153.032 111.852 152.872C111.676 152.712 111.476 152.6 111.252 152.536C111.044 152.472 110.836 152.44 110.628 152.44H109.5C109.356 152.44 109.188 152.464 108.996 152.512C108.804 152.544 108.62 152.6 108.444 152.68C108.284 152.76 108.148 152.864 108.036 152.992C107.924 153.12 107.868 153.264 107.868 153.424V161.2H104.628V143.704H107.868V150.304C108.108 150.176 108.396 150.064 108.732 149.968C109.084 149.856 109.436 149.8 109.788 149.8H111.084C111.564 149.8 112.036 149.88 112.5 150.04C112.98 150.2 113.412 150.456 113.796 150.808C114.18 151.144 114.492 151.592 114.732 152.152C114.972 152.696 115.092 153.36 115.092 154.144V161.2H112.428V154.576ZM122.378 149.776C122.938 149.776 123.474 149.864 123.986 150.04C124.498 150.216 124.946 150.464 125.33 150.784C125.73 151.104 126.042 151.504 126.266 151.984C126.506 152.448 126.626 152.968 126.626 153.544V156.256H119.498V157.36C119.498 157.504 119.522 157.68 119.57 157.888C119.634 158.096 119.738 158.296 119.882 158.488C120.026 158.664 120.226 158.816 120.482 158.944C120.738 159.072 121.066 159.136 121.466 159.136H122.402C123.554 159.136 124.13 158.608 124.13 157.552H126.842V158.272C126.842 158.848 126.73 159.328 126.506 159.712C126.282 160.08 125.986 160.376 125.618 160.6C125.25 160.824 124.826 160.976 124.346 161.056C123.866 161.152 123.37 161.2 122.858 161.2H120.554C120.154 161.2 119.738 161.144 119.306 161.032C118.89 160.92 118.49 160.728 118.106 160.456C117.738 160.2 117.418 159.856 117.146 159.424C116.874 158.976 116.69 158.432 116.594 157.792V153.544C116.594 153.016 116.714 152.528 116.954 152.08C117.194 151.616 117.514 151.216 117.914 150.88C118.314 150.528 118.778 150.256 119.306 150.064C119.85 149.872 120.418 149.776 121.01 149.776H122.378ZM119.498 154.456H123.89V153.736C123.89 153.528 123.834 153.328 123.722 153.136C123.626 152.928 123.49 152.752 123.314 152.608C123.138 152.448 122.938 152.328 122.714 152.248C122.49 152.152 122.266 152.104 122.042 152.104H121.274C121.05 152.104 120.826 152.152 120.602 152.248C120.394 152.328 120.202 152.448 120.026 152.608C119.866 152.752 119.738 152.928 119.642 153.136C119.546 153.328 119.498 153.528 119.498 153.736V154.456ZM133.516 149.752C133.964 149.752 134.316 149.784 134.572 149.848C134.844 149.912 135.148 150.032 135.484 150.208V143.728H138.628V161.2H135.484V160.36C135.212 160.616 134.9 160.816 134.548 160.96C134.212 161.12 133.852 161.2 133.468 161.2H132.292C131.684 161.2 131.148 161.112 130.684 160.936C130.22 160.776 129.828 160.544 129.508 160.24C129.188 159.936 128.94 159.592 128.764 159.208C128.604 158.808 128.524 158.376 128.524 157.912V152.728C128.524 152.28 128.612 151.88 128.788 151.528C128.964 151.16 129.196 150.848 129.484 150.592C129.772 150.32 130.1 150.112 130.468 149.968C130.852 149.824 131.244 149.752 131.644 149.752H133.516ZM133.612 158.584C134.012 158.584 134.396 158.448 134.764 158.176C135.132 157.888 135.316 157.488 135.316 156.976V153.376C135.316 152.992 135.172 152.64 134.884 152.32C134.612 151.984 134.172 151.816 133.564 151.816H132.724C132.228 151.816 131.812 151.968 131.476 152.272C131.156 152.576 130.996 153.016 130.996 153.592V156.76C130.996 157.256 131.092 157.688 131.284 158.056C131.476 158.408 131.876 158.584 132.484 158.584H133.636H133.612ZM146.861 143.728H153.989C155.109 143.728 156.037 143.856 156.773 144.112C157.509 144.352 158.093 144.688 158.525 145.12C158.957 145.536 159.253 146.016 159.413 146.56C159.589 147.088 159.677 147.64 159.677 148.216C159.677 148.84 159.597 149.368 159.437 149.8C159.277 150.216 159.077 150.568 158.837 150.856C158.613 151.128 158.373 151.344 158.117 151.504C157.861 151.648 157.637 151.768 157.445 151.864C158.517 152.28 159.245 152.832 159.629 153.52C160.013 154.208 160.189 155.032 160.157 155.992C160.125 156.872 159.941 157.64 159.605 158.296C159.269 158.936 158.797 159.472 158.189 159.904C157.581 160.336 156.845 160.656 155.981 160.864C155.133 161.088 154.181 161.2 153.125 161.2H146.861V143.728ZM150.821 150.856H154.109C154.573 150.856 155.005 150.808 155.405 150.712C155.821 150.6 156.173 150.44 156.461 150.232C156.765 150.024 156.997 149.76 157.157 149.44C157.333 149.104 157.421 148.72 157.421 148.288C157.421 147.504 157.117 146.92 156.509 146.536C155.917 146.136 155.077 145.936 153.989 145.936H150.821V150.856ZM150.917 158.296H154.397C154.941 158.296 155.413 158.224 155.813 158.08C156.213 157.92 156.541 157.712 156.797 157.456C157.069 157.2 157.269 156.912 157.397 156.592C157.525 156.272 157.589 155.944 157.589 155.608C157.589 155.16 157.509 154.768 157.349 154.432C157.189 154.096 156.965 153.824 156.677 153.616C156.405 153.392 156.085 153.224 155.717 153.112C155.365 153 154.989 152.944 154.589 152.944H150.917V158.296ZM165.388 161.2C164.876 161.2 164.38 161.128 163.9 160.984C163.436 160.84 163.028 160.616 162.676 160.312C162.324 160.024 162.044 159.656 161.836 159.208C161.628 158.744 161.524 158.2 161.524 157.576V153.304C161.524 152.808 161.636 152.344 161.86 151.912C162.1 151.48 162.412 151.104 162.796 150.784C163.196 150.464 163.66 150.216 164.188 150.04C164.716 149.864 165.276 149.776 165.868 149.776H167.356C168.028 149.776 168.636 149.872 169.18 150.064C169.74 150.256 170.22 150.512 170.62 150.832C171.02 151.152 171.324 151.536 171.532 151.984C171.756 152.432 171.868 152.904 171.868 153.4V157.816C171.868 158.312 171.78 158.768 171.604 159.184C171.428 159.6 171.172 159.952 170.836 160.24C170.5 160.544 170.1 160.776 169.636 160.936C169.172 161.112 168.652 161.2 168.076 161.2H165.388ZM167.236 159.016C167.508 159.016 167.74 158.968 167.932 158.872C168.14 158.76 168.308 158.632 168.436 158.488C168.58 158.328 168.684 158.16 168.748 157.984C168.812 157.792 168.844 157.608 168.844 157.432V154.024C168.844 153.64 168.684 153.272 168.364 152.92C168.06 152.552 167.628 152.368 167.068 152.368H166.396C166.172 152.368 165.948 152.4 165.724 152.464C165.516 152.528 165.316 152.632 165.124 152.776C164.948 152.904 164.804 153.072 164.692 153.28C164.58 153.488 164.524 153.744 164.524 154.048V157.312C164.524 157.44 164.54 157.608 164.572 157.816C164.62 158.008 164.7 158.192 164.812 158.368C164.94 158.544 165.108 158.696 165.316 158.824C165.54 158.952 165.82 159.016 166.156 159.016H167.236ZM177.224 161.2C176.712 161.2 176.216 161.128 175.736 160.984C175.272 160.84 174.864 160.616 174.512 160.312C174.16 160.024 173.88 159.656 173.672 159.208C173.464 158.744 173.36 158.2 173.36 157.576V153.304C173.36 152.808 173.472 152.344 173.696 151.912C173.936 151.48 174.248 151.104 174.632 150.784C175.032 150.464 175.496 150.216 176.024 150.04C176.552 149.864 177.112 149.776 177.704 149.776H179.192C179.864 149.776 180.472 149.872 181.016 150.064C181.576 150.256 182.056 150.512 182.456 150.832C182.856 151.152 183.16 151.536 183.368 151.984C183.592 152.432 183.704 152.904 183.704 153.4V157.816C183.704 158.312 183.616 158.768 183.44 159.184C183.264 159.6 183.008 159.952 182.672 160.24C182.336 160.544 181.936 160.776 181.472 160.936C181.008 161.112 180.488 161.2 179.912 161.2H177.224ZM179.072 159.016C179.344 159.016 179.576 158.968 179.768 158.872C179.976 158.76 180.144 158.632 180.272 158.488C180.416 158.328 180.52 158.16 180.584 157.984C180.648 157.792 180.68 157.608 180.68 157.432V154.024C180.68 153.64 180.52 153.272 180.2 152.92C179.896 152.552 179.464 152.368 178.904 152.368H178.232C178.008 152.368 177.784 152.4 177.56 152.464C177.352 152.528 177.152 152.632 176.96 152.776C176.784 152.904 176.64 153.072 176.528 153.28C176.416 153.488 176.36 153.744 176.36 154.048V157.312C176.36 157.44 176.376 157.608 176.408 157.816C176.456 158.008 176.536 158.192 176.648 158.368C176.776 158.544 176.944 158.696 177.152 158.824C177.376 158.952 177.656 159.016 177.992 159.016H179.072ZM195.204 149.704V152.944L190.908 155.464L195.204 158.008V161.272L188.724 157.552V161.2H185.676V143.728H188.724V153.304L195.204 149.704ZM196.755 160.144V157.912C197.523 158.232 198.291 158.536 199.059 158.824C199.843 159.112 200.595 159.224 201.315 159.16C201.539 159.16 201.755 159.152 201.963 159.136C202.171 159.104 202.355 159.056 202.515 158.992C202.691 158.928 202.843 158.832 202.971 158.704C203.099 158.56 203.187 158.376 203.235 158.152C203.299 157.88 203.267 157.64 203.139 157.432C203.027 157.208 202.867 157.016 202.659 156.856C202.451 156.696 202.219 156.568 201.963 156.472C201.707 156.376 201.483 156.304 201.291 156.256C200.651 156.096 200.051 155.944 199.491 155.8C198.947 155.64 198.475 155.44 198.075 155.2C197.675 154.96 197.355 154.656 197.115 154.288C196.891 153.92 196.779 153.448 196.779 152.872C196.779 152.104 196.987 151.472 197.403 150.976C197.835 150.48 198.371 150.104 199.011 149.848C199.651 149.576 200.331 149.424 201.051 149.392C201.787 149.344 202.467 149.392 203.091 149.536C203.555 149.648 204.003 149.784 204.435 149.944C204.867 150.104 205.267 150.32 205.635 150.592V153.016C205.363 152.792 205.099 152.6 204.843 152.44C204.587 152.264 204.275 152.096 203.907 151.936C203.667 151.824 203.403 151.736 203.115 151.672C202.827 151.592 202.539 151.552 202.251 151.552C201.963 151.536 201.675 151.56 201.387 151.624C201.115 151.688 200.867 151.808 200.643 151.984C200.467 152.128 200.355 152.288 200.307 152.464C200.259 152.624 200.259 152.784 200.307 152.944C200.371 153.104 200.467 153.256 200.595 153.4C200.723 153.528 200.875 153.616 201.051 153.664C201.707 153.872 202.283 154.064 202.779 154.24C203.291 154.4 203.827 154.592 204.387 154.816C204.835 155.008 205.195 155.224 205.467 155.464C205.739 155.704 205.947 155.968 206.091 156.256C206.235 156.528 206.331 156.816 206.379 157.12C206.427 157.424 206.451 157.728 206.451 158.032C206.451 158.656 206.291 159.192 205.971 159.64C205.667 160.088 205.267 160.456 204.771 160.744C204.291 161.032 203.747 161.24 203.139 161.368C202.547 161.496 201.963 161.56 201.387 161.56C200.523 161.56 199.715 161.44 198.963 161.2C198.227 160.96 197.491 160.608 196.755 160.144Z" fill="white"/>
</g>
<path d="M27.5 173L36 181L39.1913 194H15.8087L19 181L27.5 173Z" fill="#F29024"/>
<path d="M234.691 173L243.191 181L246.383 194H223L226.191 181L234.691 173Z" fill="#F29024"/>
<defs>
<filter id="filter0_d" x="82.0337" y="40" width="98.9327" height="80.75" filterUnits="userSpaceOnUse" color-interpolation-filters="sRGB">
<feFlood flood-opacity="0" result="BackgroundImageFix"/>
<feColorMatrix in="SourceAlpha" type="matrix" values="0 0 0 0 0 0 0 0 0 0 0 0 0 0 0 0 0 0 127 0"/>
<feOffset dy="4"/>
<feGaussianBlur stdDeviation="2"/>
<feColorMatrix type="matrix" values="0 0 0 0 0 0 0 0 0 0 0 0 0 0 0 0 0 0 0.25 0"/>
<feBlend mode="normal" in2="BackgroundImageFix" result="effect1_dropShadow"/>
<feBlend mode="normal" in="SourceGraphic" in2="effect1_dropShadow" result="shape"/>
</filter>
<filter id="filter1_d" x="0" y="177" width="262" height="78" filterUnits="userSpaceOnUse" color-interpolation-filters="sRGB">
<feFlood flood-opacity="0" result="BackgroundImageFix"/>
<feColorMatrix in="SourceAlpha" type="matrix" values="0 0 0 0 0 0 0 0 0 0 0 0 0 0 0 0 0 0 127 0"/>
<feOffset dy="4"/>
<feGaussianBlur stdDeviation="2"/>
<feColorMatrix type="matrix" values="0 0 0 0 0 0 0 0 0 0 0 0 0 0 0 0 0 0 0.25 0"/>
<feBlend mode="normal" in2="BackgroundImageFix" result="effect1_dropShadow"/>
<feBlend mode="normal" in="SourceGraphic" in2="effect1_dropShadow" result="shape"/>
</filter>
<filter id="filter2_d" x="0" y="152" width="56" height="105" filterUnits="userSpaceOnUse" color-interpolation-filters="sRGB">
<feFlood flood-opacity="0" result="BackgroundImageFix"/>
<feColorMatrix in="SourceAlpha" type="matrix" values="0 0 0 0 0 0 0 0 0 0 0 0 0 0 0 0 0 0 127 0"/>
<feOffset dy="4"/>
<feGaussianBlur stdDeviation="2"/>
<feColorMatrix type="matrix" values="0 0 0 0 0 0 0 0 0 0 0 0 0 0 0 0 0 0 0.25 0"/>
<feBlend mode="normal" in2="BackgroundImageFix" result="effect1_dropShadow"/>
<feBlend mode="normal" in="SourceGraphic" in2="effect1_dropShadow" result="shape"/>
</filter>
<filter id="filter3_d" x="206" y="154" width="58" height="103" filterUnits="userSpaceOnUse" color-interpolation-filters="sRGB">
<feFlood flood-opacity="0" result="BackgroundImageFix"/>
<feColorMatrix in="SourceAlpha" type="matrix" values="0 0 0 0 0 0 0 0 0 0 0 0 0 0 0 0 0 0 127 0"/>
<feOffset dy="4"/>
<feGaussianBlur stdDeviation="2"/>
<feColorMatrix type="matrix" values="0 0 0 0 0 0 0 0 0 0 0 0 0 0 0 0 0 0 0.25 0"/>
<feBlend mode="normal" in2="BackgroundImageFix" result="effect1_dropShadow"/>
<feBlend mode="normal" in="SourceGraphic" in2="effect1_dropShadow" result="shape"/>
</filter>
<filter id="filter4_d" x="122.591" y="0.92749" width="51.176" height="37.9491" filterUnits="userSpaceOnUse" color-interpolation-filters="sRGB">
<feFlood flood-opacity="0" result="BackgroundImageFix"/>
<feColorMatrix in="SourceAlpha" type="matrix" values="0 0 0 0 0 0 0 0 0 0 0 0 0 0 0 0 0 0 127 0"/>
<feOffset dy="4"/>
<feGaussianBlur stdDeviation="2"/>
<feColorMatrix type="matrix" values="0 0 0 0 0 0 0 0 0 0 0 0 0 0 0 0 0 0 0.25 0"/>
<feBlend mode="normal" in2="BackgroundImageFix" result="effect1_dropShadow"/>
<feBlend mode="normal" in="SourceGraphic" in2="effect1_dropShadow" result="shape"/>
</filter>
<filter id="filter5_d" x="51.368" y="143.704" width="159.083" height="25.856" filterUnits="userSpaceOnUse" color-interpolation-filters="sRGB">
<feFlood flood-opacity="0" result="BackgroundImageFix"/>
<feColorMatrix in="SourceAlpha" type="matrix" values="0 0 0 0 0 0 0 0 0 0 0 0 0 0 0 0 0 0 127 0"/>
<feOffset dy="4"/>
<feGaussianBlur stdDeviation="2"/>
<feColorMatrix type="matrix" values="0 0 0 0 0 0 0 0 0 0 0 0 0 0 0 0 0 0 0.25 0"/>
<feBlend mode="normal" in2="BackgroundImageFix" result="effect1_dropShadow"/>
<feBlend mode="normal" in="SourceGraphic" in2="effect1_dropShadow" result="shape"/>
</filter>
</defs>
</svg>
