<svg width="130" height="111" viewBox="0 0 130 111" fill="none" xmlns="http://www.w3.org/2000/svg">
<path d="M65 0L80.267 42.15H129.672L89.7024 68.2001L104.969 110.35L65 84.2999L25.0306 110.35L40.2976 68.2001L0.328156 42.15H49.733L65 0Z" fill="#FFDB5A"/>
<g style="mix-blend-mode:darken">
<path d="M52.4404 64H49.8037V58.5156H44.6621V64H42.0254V51.2031H44.6621V56.3887H49.8037V51.2031H52.4404V64ZM54.1895 59.1572C54.1895 58.2139 54.3711 57.373 54.7344 56.6348C55.0977 55.8965 55.6191 55.3252 56.2988 54.9209C56.9844 54.5166 57.7783 54.3145 58.6807 54.3145C59.9639 54.3145 61.0098 54.707 61.8184 55.4922C62.6328 56.2773 63.0869 57.3438 63.1807 58.6914L63.1982 59.3418C63.1982 60.8008 62.791 61.9727 61.9766 62.8574C61.1621 63.7363 60.0693 64.1758 58.6982 64.1758C57.3271 64.1758 56.2314 63.7363 55.4111 62.8574C54.5967 61.9785 54.1895 60.7832 54.1895 59.2715V59.1572ZM56.7295 59.3418C56.7295 60.2441 56.8994 60.9355 57.2393 61.416C57.5791 61.8906 58.0654 62.1279 58.6982 62.1279C59.3135 62.1279 59.7939 61.8936 60.1396 61.4248C60.4854 60.9502 60.6582 60.1943 60.6582 59.1572C60.6582 58.2725 60.4854 57.5869 60.1396 57.1006C59.7939 56.6143 59.3076 56.3711 58.6807 56.3711C58.0596 56.3711 57.5791 56.6143 57.2393 57.1006C56.8994 57.5811 56.7295 58.3281 56.7295 59.3418ZM67.1445 54.4902L67.2236 55.5537C67.8975 54.7275 68.8086 54.3145 69.957 54.3145C71.1816 54.3145 72.0225 54.7979 72.4795 55.7646C73.1475 54.7979 74.0996 54.3145 75.3359 54.3145C76.3672 54.3145 77.1348 54.6162 77.6387 55.2197C78.1426 55.8174 78.3945 56.7197 78.3945 57.9268V64H75.8457V57.9355C75.8457 57.3965 75.7402 57.0039 75.5293 56.7578C75.3184 56.5059 74.9463 56.3799 74.4131 56.3799C73.6514 56.3799 73.124 56.7432 72.8311 57.4697L72.8398 64H70.2998V57.9443C70.2998 57.3936 70.1914 56.9951 69.9746 56.749C69.7578 56.5029 69.3887 56.3799 68.8672 56.3799C68.1465 56.3799 67.625 56.6787 67.3027 57.2764V64H64.7627V54.4902H67.1445ZM84.7314 64.1758C83.3369 64.1758 82.2002 63.748 81.3213 62.8926C80.4482 62.0371 80.0117 60.8975 80.0117 59.4736V59.2275C80.0117 58.2725 80.1963 57.4199 80.5654 56.6699C80.9346 55.9141 81.4561 55.334 82.1299 54.9297C82.8096 54.5195 83.583 54.3145 84.4502 54.3145C85.751 54.3145 86.7734 54.7246 87.5176 55.5449C88.2676 56.3652 88.6426 57.5283 88.6426 59.0342V60.0713H82.5869C82.6689 60.6924 82.915 61.1904 83.3252 61.5654C83.7412 61.9404 84.2656 62.1279 84.8984 62.1279C85.877 62.1279 86.6416 61.7734 87.1924 61.0645L88.4404 62.4619C88.0596 63.001 87.5439 63.4229 86.8936 63.7275C86.2432 64.0264 85.5225 64.1758 84.7314 64.1758ZM84.4414 56.3711C83.9375 56.3711 83.5273 56.541 83.2109 56.8809C82.9004 57.2207 82.7012 57.707 82.6133 58.3398H86.1465V58.1377C86.1348 57.5752 85.9824 57.1416 85.6895 56.8369C85.3965 56.5264 84.9805 56.3711 84.4414 56.3711Z" fill="black"/>
</g>
</svg>
