<svg width="1177" height="148" viewBox="0 0 1177 148" fill="none" xmlns="http://www.w3.org/2000/svg">
<g filter="url(#filter0_d)">
<path d="M601 22.8713V10.396L591 22.8713L582 5.54455V29.1089L565 16.6337L571 29.1089L401 36.3861H258L251 29.1089L244 36.3861L238 22.8713V36.3861L225 22.8713V36.3861H4V140L1173 130.297V36.3861L1059 29.1089V10.396L1051 29.1089L1045 16.6337V29.1089L1038 10.396V29.1089L1030 16.6337V29.1089L1013 16.6337L1023 29.1089L997 16.6337L1013 29.1089H814L807 10.396V29.1089L798 5.54455V16.6337L790 10.396L798 29.1089L782 16.6337L790 29.1089H639V10.396L633 22.8713L626 0V29.1089L619 10.396L612 29.1089V0L601 22.8713Z" fill="#176816"/>
</g>
<g filter="url(#filter1_d)">
<path d="M4 70L77.5 78L171 54L308.5 70L405.5 62.5L458.5 70L526.5 54L586 62.5L727 70L903.5 47.5L1080 54L1173 70V130H4V70Z" fill="#3E3517"/>
</g>
<g filter="url(#filter2_d)">
<path d="M4 89L40 95.5L162 81.5H251.5L362.5 95.5L514 89L592.5 81.5L743.5 95.5L902.5 81.5L958 89L1053.5 73L1173 89V140H4V89Z" fill="#221D0C"/>
</g>
<g filter="url(#filter3_d)">
<path d="M4 106L48.5 117L191 106H294.5L364 117L463.5 106L581 117L669 106L760 117L893.5 106L1028.5 117L1098 94L1173 106V140H4V106Z" fill="#070602"/>
</g>
<defs>
<filter id="filter0_d" x="0" y="0" width="1177" height="148" filterUnits="userSpaceOnUse" color-interpolation-filters="sRGB">
<feFlood flood-opacity="0" result="BackgroundImageFix"/>
<feColorMatrix in="SourceAlpha" type="matrix" values="0 0 0 0 0 0 0 0 0 0 0 0 0 0 0 0 0 0 127 0"/>
<feOffset dy="4"/>
<feGaussianBlur stdDeviation="2"/>
<feColorMatrix type="matrix" values="0 0 0 0 0 0 0 0 0 0 0 0 0 0 0 0 0 0 0.25 0"/>
<feBlend mode="normal" in2="BackgroundImageFix" result="effect1_dropShadow"/>
<feBlend mode="normal" in="SourceGraphic" in2="effect1_dropShadow" result="shape"/>
</filter>
<filter id="filter1_d" x="0" y="47.5" width="1177" height="90.5" filterUnits="userSpaceOnUse" color-interpolation-filters="sRGB">
<feFlood flood-opacity="0" result="BackgroundImageFix"/>
<feColorMatrix in="SourceAlpha" type="matrix" values="0 0 0 0 0 0 0 0 0 0 0 0 0 0 0 0 0 0 127 0"/>
<feOffset dy="4"/>
<feGaussianBlur stdDeviation="2"/>
<feColorMatrix type="matrix" values="0 0 0 0 0 0 0 0 0 0 0 0 0 0 0 0 0 0 0.25 0"/>
<feBlend mode="normal" in2="BackgroundImageFix" result="effect1_dropShadow"/>
<feBlend mode="normal" in="SourceGraphic" in2="effect1_dropShadow" result="shape"/>
</filter>
<filter id="filter2_d" x="0" y="73" width="1177" height="75" filterUnits="userSpaceOnUse" color-interpolation-filters="sRGB">
<feFlood flood-opacity="0" result="BackgroundImageFix"/>
<feColorMatrix in="SourceAlpha" type="matrix" values="0 0 0 0 0 0 0 0 0 0 0 0 0 0 0 0 0 0 127 0"/>
<feOffset dy="4"/>
<feGaussianBlur stdDeviation="2"/>
<feColorMatrix type="matrix" values="0 0 0 0 0 0 0 0 0 0 0 0 0 0 0 0 0 0 0.25 0"/>
<feBlend mode="normal" in2="BackgroundImageFix" result="effect1_dropShadow"/>
<feBlend mode="normal" in="SourceGraphic" in2="effect1_dropShadow" result="shape"/>
</filter>
<filter id="filter3_d" x="0" y="94" width="1177" height="54" filterUnits="userSpaceOnUse" color-interpolation-filters="sRGB">
<feFlood flood-opacity="0" result="BackgroundImageFix"/>
<feColorMatrix in="SourceAlpha" type="matrix" values="0 0 0 0 0 0 0 0 0 0 0 0 0 0 0 0 0 0 127 0"/>
<feOffset dy="4"/>
<feGaussianBlur stdDeviation="2"/>
<feColorMatrix type="matrix" values="0 0 0 0 0 0 0 0 0 0 0 0 0 0 0 0 0 0 0.25 0"/>
<feBlend mode="normal" in2="BackgroundImageFix" result="effect1_dropShadow"/>
<feBlend mode="normal" in="SourceGraphic" in2="effect1_dropShadow" result="shape"/>
</filter>
</defs>
</svg>
