<svg width="1177" height="109" viewBox="0 0 1177 109" fill="none" xmlns="http://www.w3.org/2000/svg">
<g filter="url(#filter0_d)">
<path d="M601 16.0099V7.27723L591 16.0099L582 3.88119V20.3762L565 11.6436L571 20.3762L401 25.4703H258L251 20.3762L244 25.4703L238 16.0099V25.4703L225 16.0099V25.4703H4V98L1173 91.2079V25.4703L1059 20.3762V7.27723L1051 20.3762L1045 11.6436V20.3762L1038 7.27723V20.3762L1030 11.6436V20.3762L1013 11.6436L1023 20.3762L997 11.6436L1013 20.3762H814L807 7.27723V20.3762L798 3.88119V11.6436L790 7.27723L798 20.3762L782 11.6436L790 20.3762H639V7.27723L633 16.0099L626 0V20.3762L619 7.27723L612 20.3762V0L601 16.0099Z" fill="#176816"/>
</g>
<g filter="url(#filter1_d)">
<path d="M4 43.3636L77.5 49.1818L171 31.7273L308.5 43.3636L405.5 37.9091L458.5 43.3636L526.5 31.7273L586 37.9091L727 43.3636L903.5 27L1080 31.7273L1173 43.3636V87H4V43.3636Z" fill="#3E3517"/>
</g>
<g filter="url(#filter2_d)">
<path d="M4 52.7463L40 57.1119L162 47.709H251.5L362.5 57.1119L514 52.7463L592.5 47.709L743.5 57.1119L902.5 47.709L958 52.7463L1053.5 42L1173 52.7463V87H4V52.7463Z" fill="#221D0C"/>
</g>
<g filter="url(#filter3_d)">
<path d="M4 62.5652L48.5 75L191 62.5652H294.5L364 75L463.5 62.5652L581 75L669 62.5652L760 75L893.5 62.5652L1028.5 75L1098 49L1173 62.5652V101H4V62.5652Z" fill="#070602"/>
</g>
<defs>
<filter id="filter0_d" x="0" y="0" width="1177" height="106" filterUnits="userSpaceOnUse" color-interpolation-filters="sRGB">
<feFlood flood-opacity="0" result="BackgroundImageFix"/>
<feColorMatrix in="SourceAlpha" type="matrix" values="0 0 0 0 0 0 0 0 0 0 0 0 0 0 0 0 0 0 127 0"/>
<feOffset dy="4"/>
<feGaussianBlur stdDeviation="2"/>
<feColorMatrix type="matrix" values="0 0 0 0 0 0 0 0 0 0 0 0 0 0 0 0 0 0 0.25 0"/>
<feBlend mode="normal" in2="BackgroundImageFix" result="effect1_dropShadow"/>
<feBlend mode="normal" in="SourceGraphic" in2="effect1_dropShadow" result="shape"/>
</filter>
<filter id="filter1_d" x="0" y="27" width="1177" height="68" filterUnits="userSpaceOnUse" color-interpolation-filters="sRGB">
<feFlood flood-opacity="0" result="BackgroundImageFix"/>
<feColorMatrix in="SourceAlpha" type="matrix" values="0 0 0 0 0 0 0 0 0 0 0 0 0 0 0 0 0 0 127 0"/>
<feOffset dy="4"/>
<feGaussianBlur stdDeviation="2"/>
<feColorMatrix type="matrix" values="0 0 0 0 0 0 0 0 0 0 0 0 0 0 0 0 0 0 0.25 0"/>
<feBlend mode="normal" in2="BackgroundImageFix" result="effect1_dropShadow"/>
<feBlend mode="normal" in="SourceGraphic" in2="effect1_dropShadow" result="shape"/>
</filter>
<filter id="filter2_d" x="0" y="42" width="1177" height="53" filterUnits="userSpaceOnUse" color-interpolation-filters="sRGB">
<feFlood flood-opacity="0" result="BackgroundImageFix"/>
<feColorMatrix in="SourceAlpha" type="matrix" values="0 0 0 0 0 0 0 0 0 0 0 0 0 0 0 0 0 0 127 0"/>
<feOffset dy="4"/>
<feGaussianBlur stdDeviation="2"/>
<feColorMatrix type="matrix" values="0 0 0 0 0 0 0 0 0 0 0 0 0 0 0 0 0 0 0.25 0"/>
<feBlend mode="normal" in2="BackgroundImageFix" result="effect1_dropShadow"/>
<feBlend mode="normal" in="SourceGraphic" in2="effect1_dropShadow" result="shape"/>
</filter>
<filter id="filter3_d" x="0" y="49" width="1177" height="60" filterUnits="userSpaceOnUse" color-interpolation-filters="sRGB">
<feFlood flood-opacity="0" result="BackgroundImageFix"/>
<feColorMatrix in="SourceAlpha" type="matrix" values="0 0 0 0 0 0 0 0 0 0 0 0 0 0 0 0 0 0 127 0"/>
<feOffset dy="4"/>
<feGaussianBlur stdDeviation="2"/>
<feColorMatrix type="matrix" values="0 0 0 0 0 0 0 0 0 0 0 0 0 0 0 0 0 0 0.25 0"/>
<feBlend mode="normal" in2="BackgroundImageFix" result="effect1_dropShadow"/>
<feBlend mode="normal" in="SourceGraphic" in2="effect1_dropShadow" result="shape"/>
</filter>
</defs>
</svg>
