<svg width="200" height="276" viewBox="0 0 200 276" fill="none" xmlns="http://www.w3.org/2000/svg">
<g filter="url(#filter0_d)">
<path d="M79.2242 153.804C88.2242 192.786 92.807 260.168 51.6615 239.668C16.807 248.668 13.2442 232.305 13.2442 199.168C-19.2558 170.668 42.7441 42.6681 63.7442 108.668C77.8268 112.668 79.2242 120.666 79.2242 153.804Z" fill="#3C9F88"/>
</g>
<g filter="url(#filter1_d)">
<path d="M92.366 196.799C91.3372 186.25 73.7907 187.426 72.0985 177.049C70.8401 169.333 82.0271 155.237 83.6017 147.462C85.7117 137.042 71.5445 111.631 76.4806 102.897C80.8999 95.0774 87.095 83.4809 86.5449 74.2954C85.1292 50.6591 102.89 46.3762 103.528 22.7348C103.724 15.4796 104.317 11.4899 109.393 7.45956C113.047 4.55838 118.3 1 122.758 1C128.279 1 137.397 4.12533 139.741 11.1129C142.213 18.479 138.184 28.5703 145.17 33.1654C148.287 35.2156 151.558 36.0006 154.763 37.6924C159.763 40.3324 162.574 43.2216 167.124 47.0243C170.986 50.2518 173.937 55.0095 172.793 60.5656C171.463 67.0257 169.812 73.2064 172.793 79.4677C178.241 90.9114 194.301 95.9478 194.965 110.865C195.338 119.229 192.657 125.651 190.103 133.183C187.398 141.161 183.077 147.811 182.516 156.665C182.072 163.679 185.784 170.305 186.92 177.049C188.026 183.615 188.389 190.348 186.55 196.799C184.396 204.352 181.489 213.146 176.935 218.984C173.891 222.885 171.175 226.081 167.124 228.54C161.642 231.869 156.239 233.936 150.162 235.079C138.441 237.285 135.658 249.209 126.374 239.87C126.131 252.704 105.843 239.138 103.528 224.619C103.528 236.982 92.7766 219.538 92.366 218.984C69.9074 202.669 93.1006 197.245 92.366 196.799Z" fill="#176816"/>
<path d="M92.366 196.799C91.3372 186.25 73.7907 187.426 72.0985 177.049C70.8401 169.333 82.0271 155.237 83.6017 147.462C85.7117 137.042 71.5445 111.631 76.4806 102.897C80.8999 95.0774 87.095 83.4809 86.5449 74.2954C85.1292 50.6591 102.89 46.3762 103.528 22.7348C103.724 15.4796 104.317 11.4899 109.393 7.45956C113.047 4.55838 118.3 1 122.758 1C128.279 1 137.397 4.12533 139.741 11.1129C142.213 18.479 138.184 28.5703 145.17 33.1654C148.287 35.2156 151.558 36.0006 154.763 37.6924C159.763 40.3324 162.574 43.2216 167.124 47.0243C170.986 50.2518 173.937 55.0095 172.793 60.5656C171.463 67.0257 169.812 73.2064 172.793 79.4677C178.241 90.9114 194.301 95.9478 194.965 110.865C195.338 119.23 192.657 125.651 190.103 133.183C187.398 141.161 183.077 147.811 182.516 156.665C182.072 163.679 185.784 170.305 186.92 177.049C188.026 183.615 188.389 190.348 186.55 196.799C184.396 204.352 181.489 213.146 176.935 218.984C173.891 222.885 171.175 226.081 167.124 228.54C161.642 231.869 156.239 233.936 150.162 235.079C138.194 237.331 135.544 249.714 125.78 239.252C120.939 234.065 130.328 240.602 125.78 235.079C130.467 255.467 106.079 240.622 103.528 224.619C103.528 236.982 92.7766 219.538 92.366 218.984C69.9074 202.669 93.1006 197.245 92.366 196.799Z" stroke="#176816" stroke-linecap="round" stroke-linejoin="round"/>
</g>
<path d="M126.463 248.567C126.463 238.505 128.254 228.682 128.254 218.637C128.254 214.5 127.896 210.427 127.896 206.299C127.896 202.672 128.254 199.072 128.254 195.473C128.254 187.141 128.254 178.809 128.254 170.478C128.254 165.801 127.923 161.04 127.458 156.388C127.007 151.881 126.176 147.305 126.104 142.776C126.037 138.519 124.995 134.097 124.393 129.881C123.774 125.544 123.436 121.243 122.96 116.905C122.426 112.03 122.522 107.121 122.522 102.219C122.522 98.4643 122.136 94.4456 122.602 90.7164C123.714 81.8243 125.746 72.9921 125.746 64.01C125.746 60.7084 125.388 57.2459 125.388 54.0597" stroke="black" stroke-width="3" stroke-linecap="round" stroke-linejoin="round"/>
<path d="M125.746 138.597C125.964 129.461 128.285 120.128 134.9 113.323C139.485 108.608 144.095 102.836 146.96 96.8856C149.957 90.6611 150.821 84.1598 150.821 77.3433" stroke="black" stroke-width="3" stroke-linecap="round" stroke-linejoin="round"/>
<path d="M124.522 131.388C124.522 123.855 117.511 119.481 113.616 113.816C111.695 111.02 109.202 108.097 108.403 104.701C107.814 102.201 108.044 99.5654 108.044 97" stroke="black" stroke-width="3" stroke-linecap="round" stroke-linejoin="round"/>
<path d="M128.254 170.836C129.375 167.963 130.79 165.71 132.353 163.075C133.898 160.471 136.056 158.404 138.164 156.269C141.205 153.189 143.568 149.936 147.418 147.751C152.228 145.021 157.285 142.294 161.567 138.776C165.085 135.887 167.135 131.411 169.806 127.851" stroke="black" stroke-width="3" stroke-linecap="round" stroke-linejoin="round"/>
<path d="M127.537 207.373C127.537 203.011 127.302 198.052 125.746 193.94C124.315 190.158 123.26 186.531 121.468 182.856C119.631 179.091 118.416 175.013 116.612 171.214C114.971 167.76 112.896 164.598 110.94 161.323C109.108 158.256 107.773 154.68 106.204 151.453C103.808 146.523 104.254 141.064 104.254 135.731" stroke="black" stroke-width="3" stroke-linecap="round" stroke-linejoin="round"/>
<path d="M45.1493 252.507C45.8349 249.384 47.7917 246.587 48.5522 243.393C49.3298 240.127 49.5508 236.989 49.8856 233.642C50.6197 226.301 49.5919 219.333 49.0896 212.05C48.5978 204.919 48.1151 197.626 46.9403 190.577C44.6457 176.809 41.9254 163.588 41.9254 149.582C41.9254 145.084 42.2836 140.576 42.2836 136.109C42.2836 133.168 42.0732 129.198 43 126.418" stroke="black" stroke-width="3" stroke-linecap="round" stroke-linejoin="round"/>
<path d="M43.7164 171.194C44.9662 166.473 48.0847 162.892 49.9851 158.458C51.1918 155.642 52.4424 153.042 53.3682 150.08C54.1774 147.49 54.3422 144.69 55.1791 142.179" stroke="black" stroke-width="3" stroke-linecap="round" stroke-linejoin="round"/>
<path d="M44.791 183.731C42.4531 181.527 39.0161 180.896 36.7114 178.716C35.0103 177.107 33.1326 175.27 32.1741 173.104C30.9216 170.275 29.6069 167.458 28.5522 164.547C28.1531 163.446 27.597 159.992 27.597 161.164" stroke="black" stroke-linecap="round" stroke-linejoin="round"/>
<path d="M48.7313 213.463C49.7426 207.957 54.3848 204.675 55.6169 199.254C56.8471 193.841 58.403 188.299 58.403 182.657" stroke="black" stroke-linecap="round" stroke-linejoin="round"/>
<g filter="url(#filter2_d)">
<path d="M112.5 204.5H119L124.5 207L131.5 211.5L137.5 219L142.5 225.5L144.5 219L148 216.5H153L158 219L162 221.5L164.5 229L162 236L167 238L171 243.5L177 241H182.5L187 243.5H190L192.5 250V256.5L190 262.5L187 267.5H8L16 252L21 247.5L27 245.5H33H37.5L42 247.5L47 252L49 247.5L55 243.5H60L66 245.5V241V236L68 229L74 223.5L79 221.5H85H88.5L92 223.5L98 225.5V221.5L100.5 216.5L102.5 211.5L107 207L112.5 204.5Z" fill="#EB6825"/>
</g>
<path d="M106.26 213H111.439L115.821 215.183L121.398 219.111L126.179 225.659L130.163 231.333L131.756 225.659L134.545 223.476H138.528L142.512 225.659L145.699 227.841L147.691 234.389L145.699 240.5L149.683 242.246L152.87 247.048L157.65 244.865H162.033L165.618 247.048L168.008 250.54L170 252.722V258.397L168.008 263.635L165.618 268H23L29.374 254.468L33.3577 250.54L38.1382 248.794H42.9187H46.5041L50.0894 250.54L54.0732 254.468L55.6667 250.54L60.4472 247.048H64.4309L69.2114 248.794V244.865V240.5L70.8049 234.389L75.5854 229.587L79.5691 227.841H84.3496H87.1382L89.9268 229.587L94.7073 231.333V227.841L96 222L98.2927 219.111L101.878 215.183L106.26 213Z" fill="#FFDB5A"/>
<defs>
<filter id="filter0_d" x="0" y="90" width="89.3077" height="161.464" filterUnits="userSpaceOnUse" color-interpolation-filters="sRGB">
<feFlood flood-opacity="0" result="BackgroundImageFix"/>
<feColorMatrix in="SourceAlpha" type="matrix" values="0 0 0 0 0 0 0 0 0 0 0 0 0 0 0 0 0 0 127 0"/>
<feOffset dy="4"/>
<feGaussianBlur stdDeviation="2"/>
<feColorMatrix type="matrix" values="0 0 0 0 0 0 0 0 0 0 0 0 0 0 0 0 0 0 0.25 0"/>
<feBlend mode="normal" in2="BackgroundImageFix" result="effect1_dropShadow"/>
<feBlend mode="normal" in="SourceGraphic" in2="effect1_dropShadow" result="shape"/>
</filter>
<filter id="filter1_d" x="67.5001" y="0.5" width="132" height="253" filterUnits="userSpaceOnUse" color-interpolation-filters="sRGB">
<feFlood flood-opacity="0" result="BackgroundImageFix"/>
<feColorMatrix in="SourceAlpha" type="matrix" values="0 0 0 0 0 0 0 0 0 0 0 0 0 0 0 0 0 0 127 0"/>
<feOffset dy="4"/>
<feGaussianBlur stdDeviation="2"/>
<feColorMatrix type="matrix" values="0 0 0 0 0 0 0 0 0 0 0 0 0 0 0 0 0 0 0.25 0"/>
<feBlend mode="normal" in2="BackgroundImageFix" result="effect1_dropShadow"/>
<feBlend mode="normal" in="SourceGraphic" in2="effect1_dropShadow" result="shape"/>
</filter>
<filter id="filter2_d" x="4" y="204.5" width="192.5" height="71" filterUnits="userSpaceOnUse" color-interpolation-filters="sRGB">
<feFlood flood-opacity="0" result="BackgroundImageFix"/>
<feColorMatrix in="SourceAlpha" type="matrix" values="0 0 0 0 0 0 0 0 0 0 0 0 0 0 0 0 0 0 127 0"/>
<feOffset dy="4"/>
<feGaussianBlur stdDeviation="2"/>
<feColorMatrix type="matrix" values="0 0 0 0 0 0 0 0 0 0 0 0 0 0 0 0 0 0 0.25 0"/>
<feBlend mode="normal" in2="BackgroundImageFix" result="effect1_dropShadow"/>
<feBlend mode="normal" in="SourceGraphic" in2="effect1_dropShadow" result="shape"/>
</filter>
</defs>
</svg>
